<?xml version="1.0" encoding="UTF-8" standalone="no"?>
<svg
   xmlns:dc="http://purl.org/dc/elements/1.1/"
   xmlns:cc="http://creativecommons.org/ns#"
   xmlns:rdf="http://www.w3.org/1999/02/22-rdf-syntax-ns#"
   xmlns:svg="http://www.w3.org/2000/svg"
   xmlns="http://www.w3.org/2000/svg"
   version="1.1"
   id="svg367"
   xml:space="preserve"
   width="162.66667"
   height="162.66667"
   viewBox="0 0 162.66667 162.66667"><metadata
     id="metadata373"><rdf:RDF><cc:Work
         rdf:about=""><dc:format>image/svg+xml</dc:format><dc:type
           rdf:resource="http://purl.org/dc/dcmitype/StillImage" /><dc:title></dc:title></cc:Work></rdf:RDF></metadata><defs
     id="defs371"><clipPath
       clipPathUnits="userSpaceOnUse"
       id="clipPath385"><path
         d="M 0,0 H 122 V 122 H 0 Z"
         id="path383" /></clipPath></defs><g
     id="g375"
     transform="matrix(1.3333333,0,0,-1.3333333,0,162.66667)"><g
       id="g377" /><g
       id="g379"><g
         id="g381"
         clip-path="url(#clipPath385)"><path
           d="m 97.4718,74.5534 c 4.579,-0.032 8.39,-3.786 8.368,-8.371 -0.01,-4.563 -3.753,-8.277 -8.341,-8.277 -2.226,0.01 -4.319,0.894 -5.896,2.487 -1.564,1.583 -2.417,3.666 -2.401,5.865 0.031,4.575 3.762,8.296 8.316,8.296 v 0.492 z m 0.02,-20.842 h 0.054 c 6.859,0 12.47,5.592 12.508,12.466 0.018,3.327 -1.271,6.472 -3.63,8.855 -2.364,2.388 -5.517,3.71 -8.879,3.725 -6.885,0 -12.518,-5.607 -12.557,-12.497 -0.018,-3.321 1.275,-6.458 3.643,-8.834 2.369,-2.378 5.516,-3.697 8.861,-3.715"
           id="path387" /><path
           d="m 24.8158,74.5536 c 4.578,-0.042 8.363,-3.797 8.341,-8.371 -0.011,-4.564 -3.758,-8.277 -8.351,-8.277 -2.224,0.009 -4.317,0.893 -5.893,2.488 -1.566,1.585 -2.42,3.667 -2.405,5.863 0.032,4.576 3.759,8.297 8.308,8.297 v 0.492 z m -0.016,-20.842 h 0.052 c 6.869,0 12.48,5.596 12.508,12.474 0.029,6.902 -5.581,12.542 -12.508,12.572 -6.896,0 -12.529,-5.606 -12.557,-12.496 -0.014,-3.325 1.283,-6.465 3.65,-8.842 2.369,-2.377 5.513,-3.694 8.855,-3.708"
           id="path389" /><path
           d="m 120.2175,28.164 c -1.877,11.166 -11.394,19.27 -22.629,19.27 -3.062,0 -6.084,-0.609 -8.985,-1.811 -1.154,-0.476 -1.765,0.011 -2.221,0.536 -6.391,7.452 -15.649,11.726 -25.4,11.726 -9.691,0 -18.893,-4.23 -25.247,-11.607 -0.506,-0.587 -1.128,-1.137 -2.508,-0.576 -2.825,1.163 -5.779,1.752 -8.783,1.752 -10.657,0 -19.835,-7.273 -22.32,-17.688 -0.169,-0.719 -0.313,-1.446 -0.456,-2.173 l -0.168,-0.889 v -2.778 l 0.175,-0.263 c 0.182,-0.275 0.354,-0.535 0.561,-0.718 0.415,-0.368 0.86,-0.555 1.324,-0.555 0.279,0 0.569,0.068 0.858,0.199 0.862,0.383 1.235,1.052 1.285,2.31 0.456,10.704 9.048,18.715 19.749,18.316 2.335,-0.077 4.391,-0.563 6.284,-1.485 l 0.463,-0.226 -0.826,-1.609 c -2.357,-4.479 -3.629,-9.427 -3.779,-14.71 -0.008,-0.333 -0.011,-0.716 0.061,-1.056 0.2,-1.016 1.046,-1.726 2.062,-1.726 1.038,0.008 1.881,0.745 2.006,1.753 0.095,0.746 0.143,1.474 0.194,2.258 0.063,0.947 0.128,1.925 0.287,2.883 2.012,12.19 11.558,21.818 23.754,23.958 1.669,0.293 3.369,0.442 5.053,0.442 10.416,0 20.12,-5.633 25.324,-14.701 2.474,-4.296 3.774,-9.033 3.865,-14.08 0.024,-1.527 0.871,-2.514 2.177,-2.514 h 0.001 c 0.608,0.024 1.122,0.256 1.486,0.67 0.415,0.47 0.603,1.164 0.532,1.95 l -0.067,0.769 c -0.198,2.262 -0.403,4.6 -0.975,6.774 -0.534,2.029 -1.277,3.964 -2.073,6.038 -0.335,0.874 -0.672,1.751 -0.993,2.64 l -0.245,0.676 h 0.489 l 0.206,0.045 c 0.057,0.026 0.123,0.054 0.187,0.078 6.731,2.345 13.005,1.319 18.443,-3.034 4.405,-3.524 6.746,-8.35 6.958,-14.34 0.049,-1.376 0.864,-2.265 2.076,-2.265 0.583,0 1.091,0.204 1.47,0.589 0.417,0.426 0.639,1.046 0.627,1.749 -0.023,1.352 -0.113,2.441 -0.282,3.423"
           id="path391" /><path
           d="m 60.5715,68.3409 c -7.639,0.446 -13.517,6.708 -13.104,13.959 v 0.001 c 0.409,7.356 6.249,13.119 13.298,13.119 0.263,0 0.527,-0.008 0.795,-0.025 7.573,-0.478 13.396,-6.74 12.981,-13.96 -0.433,-7.611 -6.641,-13.512 -13.97,-13.094 m -1.019,31.201 c -0.314,-0.017 -0.929,-0.097 -1.132,-0.128 -9.001,-1.294 -15.659,-9.433 -15.157,-18.529 0.495,-9.11 8.012,-16.476 17.114,-16.769 h 0.001 c 0.191,-0.006 0.573,-0.009 0.573,-0.009 8.179,0 15.471,5.73 17.34,13.626 1.969,8.327 -2.253,16.857 -10.039,20.284 -1.153,0.503 -2.381,0.813 -3.706,1.147 -0.005,0.002 -0.011,0.003 -0.016,0.004 -1.137,0.284 -2.303,0.436 -3.474,0.442 z"
           id="path393" /></g></g></g></svg>
