<?xml version="1.0" encoding="UTF-8" standalone="no"?>
<svg
   xmlns:dc="http://purl.org/dc/elements/1.1/"
   xmlns:cc="http://creativecommons.org/ns#"
   xmlns:rdf="http://www.w3.org/1999/02/22-rdf-syntax-ns#"
   xmlns:svg="http://www.w3.org/2000/svg"
   xmlns="http://www.w3.org/2000/svg"
   version="1.1"
   id="svg120"
   xml:space="preserve"
   width="162.66667"
   height="162.66667"
   viewBox="0 0 162.66667 162.66667"><metadata
     id="metadata126"><rdf:RDF><cc:Work
         rdf:about=""><dc:format>image/svg+xml</dc:format><dc:type
           rdf:resource="http://purl.org/dc/dcmitype/StillImage" /><dc:title></dc:title></cc:Work></rdf:RDF></metadata><defs
     id="defs124"><clipPath
       clipPathUnits="userSpaceOnUse"
       id="clipPath138"><path
         d="M 0,0 H 122 V 122 H 0 Z"
         id="path136" /></clipPath></defs><g
     id="g128"
     transform="matrix(1.3333333,0,0,-1.3333333,0,170.4127)"><g
       id="g130" /><g
       id="g132"><g
         id="g134"
         clip-path="url(#clipPath138)"><path
           d="m 118.0152,46.3807 c -0.548,0 -1.068,-0.174 -1.452,-0.471 -0.229,-0.122 -0.475,-0.265 -0.739,-0.434 -2.095,-1.332 -4.41,-1.24 -6.515,0.259 -0.792,0.564 -1.594,1.037 -2.459,1.442 l -0.393,0.174 c -0.889,0.374 -1.793,0.629 -2.684,0.758 -0.1,0.015 -0.201,0.029 -0.31,0.042 l -0.305,0.029 c -1.626,0.13 -3.27,-0.151 -4.895,-0.847 -0.91,-0.387 -1.836,-0.915 -2.753,-1.569 -1.514,-1.08 -3.068,-1.447 -4.624,-1.089 -0.758,0.173 -1.516,0.523 -2.256,1.042 -4.74,3.337 -9.151,3.336 -13.886,-0.007 -1.803,-1.276 -3.74,-1.522 -5.605,-0.703 -0.067,0.028 -0.134,0.059 -0.218,0.101 -0.065,0.029 -0.127,0.06 -0.195,0.098 -0.292,0.153 -0.582,0.333 -0.863,0.534 -0.385,0.275 -0.769,0.526 -1.15,0.753 l -0.208,0.122 c -0.074,0.044 -0.15,0.086 -0.221,0.125 -1.143,0.63 -2.3,1.063 -3.441,1.287 -1.882,0.367 -3.787,0.182 -5.67,-0.555 -1.027,-0.403 -2.072,-0.979 -3.106,-1.714 -0.441,-0.314 -0.893,-0.572 -1.352,-0.771 -0.06,-0.027 -0.121,-0.05 -0.219,-0.088 -0.073,-0.029 -0.149,-0.055 -0.223,-0.08 -0.999,-0.341 -2.009,-0.373 -3.012,-0.1 -0.148,0.038 -0.295,0.085 -0.452,0.145 -0.173,0.06 -0.347,0.134 -0.572,0.243 -0.377,0.175 -0.749,0.396 -1.139,0.674 -2.313,1.649 -4.695,2.453 -7.018,2.432 -2.245,-0.032 -4.495,-0.844 -6.689,-2.414 -1.152,-0.827 -2.325,-1.252 -3.484,-1.263 h -0.044 c -1.173,0 -2.363,0.426 -3.537,1.266 -0.39,0.28 -0.78,0.534 -1.155,0.752 -0.252,0.15 -0.501,0.288 -0.742,0.403 -0.215,0.115 -0.431,0.216 -0.65,0.313 -0.711,0.311 -1.438,0.549 -2.159,0.704 -0.7,0.153 -1.406,0.231 -2.098,0.231 -0.155,10e-4 -0.31,0 -0.464,-0.008 -0.112,-0.006 -0.223,-0.011 -0.318,-0.022 -2.041,-0.15 -4.068,-0.937 -6.027,-2.343 -2.352,-1.687 -4.49,-1.74 -6.92,-0.18 l -10e-4,0.165 h -0.232 c -0.441,0.364 -0.995,0.564 -1.575,0.564 -0.408,0 -0.811,-0.1 -1.091,-0.26 l -0.094,-0.041 c -0.802,-0.437 -1.3,-1.275 -1.3,-2.186 0,-1.267 0.949,-2.329 2.204,-2.47 0.091,-0.012 0.186,-0.017 0.281,-0.017 0.044,0 0.088,0 0.071,0.004 0.4,-0.04 0.827,-0.207 1.267,-0.494 1.321,-0.862 2.586,-1.294 3.839,-1.294 1.326,10e-4 2.636,0.483 3.983,1.449 1.844,1.324 3.744,2.068 5.663,2.208 0.084,0.01 0.167,0.014 0.284,0.019 0.102,0.004 0.203,0.006 0.309,0.006 0.686,0.016 1.373,-0.061 2.062,-0.211 0.674,-0.146 1.353,-0.368 2.016,-0.659 0.203,-0.09 0.404,-0.184 0.614,-0.294 0.234,-0.115 0.467,-0.241 0.703,-0.383 0.356,-0.207 0.715,-0.441 1.101,-0.716 1.319,-0.943 2.642,-1.426 4.017,-1.404 1.315,0.012 2.63,0.484 3.908,1.402 2.071,1.481 4.179,2.246 6.268,2.275 2.167,0.045 4.396,-0.739 6.578,-2.295 0.428,-0.304 0.839,-0.546 1.215,-0.72 l 0.089,-0.046 c 0.197,-0.094 0.395,-0.178 0.586,-0.245 0.172,-0.064 0.344,-0.119 0.514,-0.164 1.14,-0.309 2.297,-0.271 3.439,0.115 0.09,0.03 0.179,0.061 0.254,0.092 0.087,0.033 0.175,0.067 0.249,0.102 0.503,0.217 1.002,0.501 1.483,0.843 0.984,0.701 1.976,1.248 2.946,1.628 1.751,0.685 3.519,0.862 5.257,0.518 1.067,-0.21 2.152,-0.616 3.228,-1.211 0.065,-0.035 0.133,-0.071 0.206,-0.116 l 0.199,-0.115 c 0.365,-0.218 0.732,-0.459 1.099,-0.721 0.305,-0.218 0.624,-0.416 0.944,-0.584 0.081,-0.044 0.162,-0.086 0.231,-0.116 0.08,-0.04 0.161,-0.077 0.241,-0.112 2.108,-0.922 4.295,-0.654 6.324,0.78 4.441,3.139 8.582,3.14 13.032,0.007 0.817,-0.574 1.663,-0.964 2.517,-1.159 1.746,-0.402 3.551,0.016 5.219,1.208 0.871,0.622 1.751,1.124 2.614,1.492 1.514,0.647 3.042,0.917 4.542,0.787 l 0.568,-0.063 c 0.831,-0.121 1.675,-0.359 2.537,-0.722 l 0.41,-0.183 c 0.754,-0.353 1.516,-0.804 2.268,-1.341 2.334,-1.661 5.01,-1.764 7.342,-0.28 0.64,0.406 1.122,0.64 1.509,0.731 0.243,-0.034 0.499,-0.021 0.722,0.023 1.186,0.208 2.048,1.237 2.048,2.446 0,0.386 -0.092,0.771 -0.265,1.115 -0.425,0.847 -1.276,1.372 -2.22,1.372"
           id="path142" /><path
           d="m 118.0152,33.6044 c -0.548,0 -1.068,-0.174 -1.452,-0.471 -0.229,-0.122 -0.475,-0.265 -0.739,-0.434 -2.095,-1.332 -4.41,-1.24 -6.515,0.259 -0.792,0.564 -1.594,1.037 -2.459,1.442 l -0.393,0.174 c -0.889,0.374 -1.793,0.629 -2.684,0.758 -0.1,0.015 -0.201,0.029 -0.31,0.042 l -0.305,0.029 c -1.626,0.13 -3.27,-0.151 -4.895,-0.847 -0.91,-0.387 -1.836,-0.915 -2.753,-1.569 -1.514,-1.08 -3.068,-1.447 -4.624,-1.089 -0.758,0.173 -1.516,0.523 -2.256,1.042 -4.74,3.337 -9.151,3.336 -13.886,-0.007 -1.803,-1.276 -3.74,-1.522 -5.605,-0.703 -0.067,0.028 -0.134,0.059 -0.218,0.101 -0.065,0.029 -0.127,0.06 -0.195,0.098 -0.292,0.153 -0.582,0.333 -0.863,0.534 -0.385,0.275 -0.769,0.526 -1.15,0.753 l -0.208,0.122 c -0.074,0.044 -0.15,0.086 -0.221,0.125 -1.143,0.63 -2.3,1.063 -3.441,1.287 -1.882,0.367 -3.787,0.182 -5.67,-0.555 -1.027,-0.403 -2.072,-0.979 -3.106,-1.714 -0.441,-0.314 -0.893,-0.572 -1.352,-0.771 -0.06,-0.027 -0.121,-0.05 -0.219,-0.088 -0.073,-0.029 -0.149,-0.055 -0.223,-0.08 -0.999,-0.341 -2.009,-0.373 -3.012,-0.1 -0.148,0.038 -0.295,0.085 -0.452,0.145 -0.173,0.06 -0.347,0.134 -0.572,0.243 -0.377,0.175 -0.749,0.396 -1.139,0.674 -2.313,1.649 -4.695,2.453 -7.018,2.432 -2.245,-0.032 -4.495,-0.844 -6.689,-2.414 -1.152,-0.827 -2.325,-1.252 -3.484,-1.263 h -0.044 c -1.173,0 -2.363,0.426 -3.537,1.266 -0.39,0.28 -0.78,0.534 -1.155,0.752 -0.252,0.15 -0.501,0.288 -0.742,0.403 -0.215,0.115 -0.431,0.216 -0.65,0.313 -0.711,0.311 -1.438,0.549 -2.159,0.704 -0.7,0.153 -1.406,0.231 -2.098,0.231 -0.155,10e-4 -0.31,0 -0.464,-0.008 -0.112,-0.006 -0.223,-0.011 -0.318,-0.022 -2.041,-0.15 -4.068,-0.937 -6.027,-2.343 -2.352,-1.687 -4.49,-1.74 -6.92,-0.18 l -10e-4,0.165 h -0.232 c -0.441,0.364 -0.995,0.564 -1.575,0.564 -0.408,0 -0.811,-0.1 -1.091,-0.26 l -0.094,-0.041 c -0.802,-0.437 -1.3,-1.275 -1.3,-2.186 0,-1.267 0.949,-2.329 2.204,-2.47 0.091,-0.012 0.186,-0.017 0.281,-0.017 0.044,0 0.088,0 0.071,0.004 0.4,-0.04 0.827,-0.207 1.267,-0.494 1.321,-0.862 2.586,-1.294 3.839,-1.294 1.326,0.001 2.636,0.483 3.983,1.449 1.844,1.324 3.744,2.068 5.663,2.208 0.084,0.01 0.167,0.014 0.284,0.019 0.102,0.004 0.203,0.006 0.309,0.006 0.686,0.016 1.373,-0.061 2.062,-0.211 0.674,-0.146 1.353,-0.368 2.016,-0.659 0.203,-0.09 0.404,-0.184 0.614,-0.294 0.234,-0.115 0.467,-0.241 0.703,-0.383 0.356,-0.207 0.715,-0.441 1.101,-0.716 1.319,-0.943 2.642,-1.426 4.017,-1.404 1.315,0.012 2.63,0.484 3.908,1.402 2.071,1.481 4.179,2.246 6.268,2.275 2.167,0.045 4.396,-0.739 6.578,-2.295 0.428,-0.304 0.839,-0.546 1.215,-0.72 l 0.089,-0.046 c 0.197,-0.094 0.395,-0.178 0.586,-0.245 0.172,-0.064 0.344,-0.119 0.514,-0.164 1.14,-0.309 2.297,-0.271 3.439,0.115 0.09,0.03 0.179,0.061 0.254,0.092 0.087,0.033 0.175,0.067 0.249,0.102 0.503,0.217 1.002,0.501 1.483,0.843 0.984,0.701 1.976,1.248 2.946,1.628 1.751,0.685 3.519,0.862 5.257,0.518 1.067,-0.21 2.152,-0.616 3.228,-1.211 0.065,-0.035 0.133,-0.071 0.206,-0.116 l 0.199,-0.115 c 0.365,-0.218 0.732,-0.459 1.099,-0.721 0.305,-0.218 0.624,-0.416 0.944,-0.584 0.081,-0.044 0.162,-0.086 0.231,-0.116 0.08,-0.04 0.161,-0.077 0.241,-0.112 2.108,-0.922 4.295,-0.654 6.324,0.78 4.441,3.139 8.582,3.14 13.032,0.007 0.817,-0.574 1.663,-0.964 2.517,-1.159 1.746,-0.402 3.551,0.016 5.219,1.208 0.871,0.622 1.751,1.124 2.614,1.492 1.514,0.647 3.042,0.917 4.542,0.787 l 0.568,-0.063 c 0.831,-0.121 1.675,-0.359 2.537,-0.722 l 0.41,-0.183 c 0.754,-0.353 1.516,-0.804 2.268,-1.341 2.334,-1.661 5.01,-1.764 7.342,-0.28 0.64,0.406 1.122,0.64 1.509,0.731 0.243,-0.034 0.499,-0.021 0.722,0.023 1.186,0.208 2.048,1.237 2.048,2.446 0,0.386 -0.092,0.771 -0.265,1.115 -0.425,0.847 -1.276,1.372 -2.22,1.372"
           id="path144" /></g></g></g><g
     id="g325"
     transform="matrix(0.17816572,0.06484702,-0.06484702,0.17816572,57.468227,-7.860164)"><g
       id="g323"><g
         id="g321"><path
           d="m 168.166,104.913 c -2.458,-2.458 -6.153,-3.192 -9.344,-1.826 -3.2,1.34 -5.265,4.497 -5.222,7.962 0.008,0.905 0.367,90.547 -56.636,147.541 l -60.339,60.348 c 0,0 -0.009,0.009 -0.017,0.009 -0.008,0 -0.008,0.017 -0.008,0.017 L 12.502,343.062 C 4.437,351.125 0,361.835 0,373.227 c 0,11.401 4.437,22.118 12.501,30.174 l 6.033,6.033 c -3.226,3.226 -5.001,7.509 -5.001,12.075 0,4.557 1.775,8.841 5.001,12.066 L 48.7,463.748 c 6.648,6.639 17.485,6.647 24.132,-0.009 l 6.033,6.033 c 8.055,8.064 18.773,12.501 30.174,12.501 11.401,0 22.11,-4.437 30.165,-12.501 l 18.108,-18.099 55.339,55.339 c 3.328,3.328 7.697,4.992 12.066,4.992 4.369,0 8.738,-1.664 12.066,-4.992 l 15.599,-15.599 c 6.656,-6.656 6.656,-17.485 0,-24.141 l -17.067,-17.067 c 1.818,-3.917 3.618,-9.242 3.618,-14.993 0,-4.71 -3.814,-8.533 -8.533,-8.533 h -25.95 c -4.719,0 -8.533,3.823 -8.533,8.533 0,4.71 3.814,8.533 8.533,8.533 h 15.044 c -0.666,1.331 -1.314,2.381 -1.707,2.961 -2.44,3.396 -2.057,8.047 0.896,10.999 l 21.632,21.641 -15.599,15.599 -61.372,-61.372 c -3.2,-3.2 -8.875,-3.2 -12.075,0 l -24.132,24.132 c -9.66,9.668 -26.539,9.668 -36.207,0 L 78.864,445.639 c -3.328,-3.328 -8.73,-3.328 -12.066,0 l -6.033,6.033 -30.165,-30.165 6.033,-6.042 c 3.337,-3.337 3.337,-8.738 0,-12.066 L 24.567,391.333 c -4.838,-4.838 -7.501,-11.264 -7.501,-18.108 0,-6.835 2.662,-13.261 7.501,-18.099 l 18.125,-18.125 87.834,87.202 c 1.655,1.647 3.831,2.475 6.007,2.475 2.193,0 4.395,-0.845 6.059,-2.517 3.32,-3.354 3.302,-8.755 -0.051,-12.066 L 54.75,324.937 109.031,270.656 c 45.764,-45.747 57.574,-108.57 60.604,-140.143 l 178.551,178.543 c -17.365,2.475 -44.911,8.26 -73.89,21.461 L 171.102,227.315 c -3.337,-3.337 -8.738,-3.337 -12.066,0 -3.336,3.328 -3.336,8.73 0,12.066 l 99.174,99.174 c -16.06,8.849 -32.077,20.156 -46.592,34.68 l -36.198,36.198 c -3.337,3.337 -3.337,8.738 0,12.075 3.328,3.328 8.73,3.328 12.066,0 l 36.198,-36.207 c 57.139,-57.148 142.711,-60.996 143.556,-61.022 3.396,-0.137 6.391,-2.261 7.637,-5.419 1.237,-3.157 0.486,-6.75 -1.911,-9.148 z"
           id="path313" /><path
           d="m 281.515,102.498 c -4.719,0 -8.533,3.814 -8.533,8.533 0,4.71 3.814,8.533 8.533,8.533 19.072,0 54.955,3.883 80.998,29.935 26.044,26.052 29.935,61.926 29.935,80.998 0,4.71 3.814,8.533 8.533,8.533 4.719,0 8.533,-3.823 8.533,-8.533 0,-21.709 -4.54,-62.66 -34.935,-93.073 -30.396,-30.386 -71.355,-34.926 -93.064,-34.926 z"
           id="path315" /><path
           d="M 446.985,65.02 C 403.968,22.012 343.569,-1.728 281.276,0.098 c -4.71,0.137 -8.414,4.062 -8.294,8.772 0.145,4.71 3.994,8.508 8.781,8.286 57.472,-1.57 113.442,20.233 153.156,59.93 39.697,39.697 61.551,95.531 59.93,153.173 -0.119,4.71 3.584,8.636 8.294,8.764 0.085,0.008 0.162,0.008 0.247,0.008 4.599,0 8.397,-3.669 8.525,-8.294 1.741,-62.319 -21.922,-122.718 -64.93,-165.717 z"
           id="path317" /><path
           d="m 284.382,51.273 c -0.99,0 -1.997,0.009 -2.995,0.026 -4.71,0.077 -8.482,3.951 -8.405,8.661 0.077,4.668 3.874,8.405 8.533,8.405 h 0.137 c 44.894,-0.888 87.817,15.684 117.069,44.928 29.884,29.901 46.276,72.525 44.928,116.941 -0.137,4.719 3.567,8.653 8.277,8.789 0.094,0.008 0.179,0.008 0.265,0.008 4.591,0 8.388,-3.652 8.525,-8.277 1.476,-49.101 -16.725,-96.316 -49.929,-129.527 C 378.931,69.389 333.013,51.273 284.382,51.273 Z"
           id="path319" /></g></g></g><g
     id="g327"
     transform="matrix(0.17816572,0.06484702,-0.06484702,0.17816572,57.468227,-7.860164)" /><g
     id="g329"
     transform="matrix(0.17816572,0.06484702,-0.06484702,0.17816572,57.468227,-7.860164)" /><g
     id="g331"
     transform="matrix(0.17816572,0.06484702,-0.06484702,0.17816572,57.468227,-7.860164)" /><g
     id="g333"
     transform="matrix(0.17816572,0.06484702,-0.06484702,0.17816572,57.468227,-7.860164)" /><g
     id="g335"
     transform="matrix(0.17816572,0.06484702,-0.06484702,0.17816572,57.468227,-7.860164)" /><g
     id="g337"
     transform="matrix(0.17816572,0.06484702,-0.06484702,0.17816572,57.468227,-7.860164)" /><g
     id="g339"
     transform="matrix(0.17816572,0.06484702,-0.06484702,0.17816572,57.468227,-7.860164)" /><g
     id="g341"
     transform="matrix(0.17816572,0.06484702,-0.06484702,0.17816572,57.468227,-7.860164)" /><g
     id="g343"
     transform="matrix(0.17816572,0.06484702,-0.06484702,0.17816572,57.468227,-7.860164)" /><g
     id="g345"
     transform="matrix(0.17816572,0.06484702,-0.06484702,0.17816572,57.468227,-7.860164)" /><g
     id="g347"
     transform="matrix(0.17816572,0.06484702,-0.06484702,0.17816572,57.468227,-7.860164)" /><g
     id="g349"
     transform="matrix(0.17816572,0.06484702,-0.06484702,0.17816572,57.468227,-7.860164)" /><g
     id="g351"
     transform="matrix(0.17816572,0.06484702,-0.06484702,0.17816572,57.468227,-7.860164)" /><g
     id="g353"
     transform="matrix(0.17816572,0.06484702,-0.06484702,0.17816572,57.468227,-7.860164)" /><g
     id="g355"
     transform="matrix(0.17816572,0.06484702,-0.06484702,0.17816572,57.468227,-7.860164)" /></svg>
