<?xml version="1.0" encoding="UTF-8" standalone="no"?>
<svg
   xmlns:dc="http://purl.org/dc/elements/1.1/"
   xmlns:cc="http://creativecommons.org/ns#"
   xmlns:rdf="http://www.w3.org/1999/02/22-rdf-syntax-ns#"
   xmlns:svg="http://www.w3.org/2000/svg"
   xmlns="http://www.w3.org/2000/svg"
   version="1.1"
   id="svg10"
   xml:space="preserve"
   width="80"
   height="73.333336"
   viewBox="0 0 80 73.333336"><metadata
     id="metadata16"><rdf:RDF><cc:Work
         rdf:about=""><dc:format>image/svg+xml</dc:format><dc:type
           rdf:resource="http://purl.org/dc/dcmitype/StillImage" /><dc:title></dc:title></cc:Work></rdf:RDF></metadata><defs
     id="defs14"><clipPath
       clipPathUnits="userSpaceOnUse"
       id="clipPath28"><path
         d="M 0,0 H 60 V 55 H 0 Z"
         id="path26" /></clipPath></defs><g
     id="g18"
     transform="matrix(1.3333333,0,0,-1.3333333,0,73.333333)"><g
       id="g20" /><g
       id="g22"><g
         id="g24"
         clip-path="url(#clipPath28)"><path
           d="m 4.1157,48.3132 h 51.768 c 1.64,0 2.969,1.329 2.969,2.968 0,1.64 -1.329,2.969 -2.969,2.969 H 4.1157 c -1.639,0 -2.968,-1.329 -2.968,-2.969 0,-1.639 1.329,-2.968 2.968,-2.968"
           style="fill:#0c2d42;fill-opacity:1;fill-rule:nonzero;stroke:none"
           id="path30" /><path
           d="m 55.8838,30.4685 h -31.768 c -1.639,0 -2.968,-1.329 -2.968,-2.968 0,-1.639 1.329,-2.969 2.968,-2.969 h 31.768 c 1.64,0 2.969,1.33 2.969,2.969 0,1.639 -1.329,2.968 -2.969,2.968"
           style="fill:#0c2d42;fill-opacity:1;fill-rule:nonzero;stroke:none"
           id="path32" /><path
           d="M 55.8838,6.6873 H 4.1158 c -1.639,0 -2.968,-1.329 -2.968,-2.968 v -10e-4 c 0,-1.639 1.329,-2.968 2.968,-2.968 h 51.768 c 1.64,0 2.969,1.329 2.969,2.968 v 10e-4 c 0,1.639 -1.329,2.968 -2.969,2.968"
           style="fill:#0c2d42;fill-opacity:1;fill-rule:nonzero;stroke:none"
           id="path34" /></g></g></g></svg>
