<?xml version="1.0" encoding="UTF-8" standalone="no"?>
<svg
   xmlns:dc="http://purl.org/dc/elements/1.1/"
   xmlns:cc="http://creativecommons.org/ns#"
   xmlns:rdf="http://www.w3.org/1999/02/22-rdf-syntax-ns#"
   xmlns:svg="http://www.w3.org/2000/svg"
   xmlns="http://www.w3.org/2000/svg"
   xmlns:sodipodi="http://sodipodi.sourceforge.net/DTD/sodipodi-0.dtd"
   xmlns:inkscape="http://www.inkscape.org/namespaces/inkscape"
   version="1.1"
   id="Capa_1"
   x="0px"
   y="0px"
   viewBox="0 0 64 64"
   style="enable-background:new 0 0 64 64;"
   xml:space="preserve"
   sodipodi:docname="portolanoPo-icon-12.svg"
   inkscape:version="1.0.2 (e86c8708, 2021-01-15)"><sodipodi:namedview
   pagecolor="#ffffff"
   bordercolor="#666666"
   borderopacity="1"
   objecttolerance="10"
   gridtolerance="10"
   guidetolerance="10"
   inkscape:pageopacity="0"
   inkscape:pageshadow="2"
   inkscape:window-width="1706"
   inkscape:window-height="1412"
   id="namedview298"
   showgrid="false"
   inkscape:zoom="11.136932"
   inkscape:cx="11.975409"
   inkscape:cy="53.909274"
   inkscape:window-x="4240"
   inkscape:window-y="0"
   inkscape:window-maximized="0"
   inkscape:current-layer="Capa_1" /><metadata
   id="metadata55"><rdf:RDF><cc:Work
       rdf:about=""><dc:format>image/svg+xml</dc:format><dc:type
         rdf:resource="http://purl.org/dc/dcmitype/StillImage" /><dc:title /></cc:Work></rdf:RDF></metadata><defs
   id="defs53"><clipPath
     clipPathUnits="userSpaceOnUse"
     id="clipPath138"><path
       d="M 0,0 H 122 V 122 H 0 Z"
       id="path136" /></clipPath></defs>
<g
   id="g18">
	<path
   d="M0,39h4v8H1c-0.552,0-1,0.447-1,1v6v1v1c1.311,0,1.909,0.374,2.666,0.848C3.529,57.388,4.507,58,6.393,58   s2.864-0.612,3.728-1.152C10.878,56.374,11.477,56,12.789,56s1.911,0.374,2.669,0.848c0.864,0.54,1.843,1.152,3.73,1.152   c1.886,0,2.866-0.612,3.729-1.152C23.675,56.374,24.273,56,25.586,56s1.912,0.374,2.67,0.848C29.12,57.388,30.099,58,31.985,58   c1.887,0,2.866-0.612,3.73-1.152C36.474,56.374,37.073,56,38.386,56c1.312,0,1.911,0.374,2.668,0.848   C41.918,57.388,42.897,58,44.783,58c1.887,0,2.867-0.612,3.731-1.151C49.272,56.374,49.872,56,51.186,56   c1.315,0,1.915,0.374,2.673,0.849C54.724,57.388,55.705,58,57.593,58s2.869-0.612,3.733-1.151C62.085,56.374,62.685,56,64,56v-1v-1   v-6c0-0.553-0.448-1-1-1h-3v-8h4v-2H0V39z M6,39h4v8H6V39z M9.061,55.152C8.303,55.626,7.705,56,6.393,56s-1.909-0.374-2.666-0.848   C3.238,54.847,2.706,54.521,2,54.294V49h12v5.098C13.641,54.037,13.242,54,12.789,54C10.903,54,9.924,54.612,9.061,55.152z    M21.857,55.152C21.099,55.626,20.501,56,19.188,56s-1.912-0.374-2.669-0.848c-0.166-0.104-0.339-0.209-0.519-0.313V48   c0-0.553-0.448-1-1-1h-3v-8h16v8h-3c-0.552,0-1,0.447-1,1v6.178C23.076,54.399,22.437,54.79,21.857,55.152z M30,47v-8h4v8H30z    M34.656,55.152C33.897,55.626,33.299,56,31.985,56c-1.312,0-1.911-0.374-2.669-0.848C28.519,54.654,27.615,54.1,26,54.017V49h12   v5.016C36.368,54.095,35.457,54.651,34.656,55.152z M44.783,56c-1.312,0-1.911-0.374-2.668-0.848   c-0.574-0.359-1.206-0.746-2.115-0.968V48c0-0.553-0.448-1-1-1h-3v-8h16v8h-3c-0.552,0-1,0.447-1,1v6.824   c-0.19,0.109-0.371,0.22-0.545,0.329C46.696,55.626,46.097,56,44.783,56z M62,54.292c-0.709,0.228-1.243,0.553-1.733,0.859   C59.508,55.626,58.908,56,57.593,56c-1.315,0-1.915-0.374-2.674-0.849C54.054,54.612,53.074,54,51.186,54   c-0.443,0-0.833,0.036-1.186,0.095V49h12V54.292z M58,47h-4v-8h4V47z"
   id="path10"
   style="" />
	<path
   d="m 57.928303,60.461252 c -1.312,0 -1.911,-0.374 -2.669,-0.848 -0.864,-0.54 -1.843,-1.152 -3.73,-1.152 -1.886,0 -2.866,0.612 -3.729,1.152 -0.758,0.474 -1.356,0.848 -2.669,0.848 -1.313,0 -1.912,-0.374 -2.67,-0.848 -0.864,-0.54 -1.843,-1.152 -3.729,-1.152 -1.886,0 -2.865,0.612 -3.729,1.152 -0.757,0.474 -1.355,0.848 -2.667,0.848 -1.312,0 -1.909,-0.374 -2.667,-0.848 -0.863,-0.54 -1.841,-1.152 -3.726,-1.152 v 2 c 1.311,0 1.909,0.374 2.666,0.848 0.863,0.54 1.841,1.152 3.727,1.152 1.886,0 2.864,-0.612 3.728,-1.152 0.757,-0.474 1.356,-0.848 2.668,-0.848 1.312,0 1.911,0.374 2.669,0.848 0.864,0.54 1.843,1.152 3.73,1.152 1.886,0 2.866,-0.612 3.729,-1.152 0.758,-0.474 1.356,-0.848 2.669,-0.848 1.313,0 1.912,0.374 2.67,0.848 0.864,0.54 1.843,1.152 3.729,1.152 1.887,0 2.673,-0.612 3.537,-1.152 0.758,-0.474 1.478,-0.848 2.478,-0.848 v -2 c -2,0 -2.674,0.612 -3.537,1.152 -0.759,0.474 -1.164,0.848 -2.478,0.848 z"
   id="path12" />
	<path
   d="m 19.917303,60.461252 c -1.312,0 -1.923,-0.374 -2.681,-0.848 -0.864,-0.54 -1.867,-1.152 -3.754,-1.152 -1.886,0 -2.913,0.612 -3.777,1.152 -0.757,0.474 -1.762,0.848 -2.762,0.848 v 2 c 2,0 2.96,-0.612 3.824,-1.152 0.757,-0.474 1.449,-0.848 2.762,-0.848 1.313,0 1.912,0.374 2.67,0.848 0.864,0.54 1.843,1.152 3.729,1.152 1.887,0 2.673,-0.612 3.537,-1.152 0.759,-0.474 1.478,-0.848 2.478,-0.848 v -2 c -2,0 -2.679,0.612 -3.543,1.152 -0.759,0.474 -1.17,0.848 -2.483,0.848 z"
   id="path14" />
	<path
   d="M63,10c0.552,0,1-0.447,1-1V4c0-0.553-0.448-1-1-1h-3V0h-2v3h-3c-0.552,0-1,0.447-1,1v5c0,0.553,0.448,1,1,1h0.364   c-2.096,3.557-5.866,5.684-10.052,5.618c-4.086-0.066-7.673-2.183-9.689-5.618H36c0.552,0,1-0.447,1-1V4c0-0.553-0.448-1-1-1h-3V0   h-2v3h-3c-0.552,0-1,0.447-1,1v5c0,0.553,0.448,1,1,1h0.364c-2.095,3.557-5.857,5.684-10.052,5.618   c-4.086-0.066-7.673-2.183-9.689-5.618H9c0.552,0,1-0.447,1-1V4c0-0.553-0.448-1-1-1H6V0H4v3H1C0.448,3,0,3.447,0,4v5   c0,0.553,0.448,1,1,1h1v17H0v1v1v5v1v1h64v-2h-4.586l4.293-4.293C63.895,29.52,64,29.266,64,29v-1v-1h-2V10H63z M56,5h6v3h-6V5z    M56,12.6V27h-5V16.471C52.945,15.612,54.654,14.292,56,12.6z M9,29h3.586L9,32.586V29z M33,10v17h-2V10H33z M44,29h3.586   L44,32.586V29z M40.586,29L37,32.586V29H40.586z M30,29h3.586L30,32.586V29z M23,29h3.586L23,32.586V29z M16,29h3.586L16,32.586V29   z M14,30.414V34h-3.586L14,30.414z M21,30.414V34h-3.586L21,30.414z M28,30.414V34h-3.586L28,30.414z M35,30.414V34h-3.586   L35,30.414z M42,30.414V34h-3.586L42,30.414z M49,30.414V34h-3.586L49,30.414z M51,29h3.586L51,32.586V29z M45.509,17.619   c1.205,0,2.373-0.161,3.491-0.454V27h-7v-9.835c1.051,0.275,2.148,0.434,3.28,0.453C45.356,17.619,45.433,17.619,45.509,17.619z    M40,16.468V27h-5V12.618C36.342,14.3,38.052,15.61,40,16.468z M29,5h6v3h-6V5z M29,12.6V27h-5V16.471   C25.945,15.612,27.654,14.292,29,12.6z M18.509,17.619c1.205,0,2.373-0.161,3.491-0.454V27h-7v-9.835   c1.051,0.275,2.148,0.434,3.28,0.453C18.356,17.619,18.433,17.619,18.509,17.619z M13,16.468V27H8V12.618   C9.342,14.3,11.052,15.61,13,16.468z M2,5h6v3H2V5z M4,10h2v17H4V10z M5.586,29L2,32.586V29H5.586z M7,30.414V34H3.414L7,30.414z    M52.414,34L56,30.414V34H52.414z M58,32.586V29h3.586L58,32.586z M60,27h-2V10h2V27z"
   id="path16"
   style="" />
</g>
<path
   d="m -0.00469648,60.461252 c 1.31199898,0 1.92299998,0.374 2.68100048,0.848 0.863999,0.54 1.866998,1.152 3.753999,1.152 1.886,0 2.913,-0.612 3.777,-1.152 0.757,-0.474 1.762,-0.848 2.762,-0.848 v -2 c -2,0 -2.96,0.612 -3.824,1.152 -0.757,0.474 -1.449,0.848 -2.762,0.848 -1.313,0 -1.912,-0.374 -2.67,-0.848 -0.864,-0.54 -1.8429995,-1.152 -3.72899948,-1.152 0.0164850036,0.603891 0.07164,0.864402 0.011,2 z"
   id="path14-1"
   sodipodi:nodetypes="ccsccccsccc" /></svg>
