<?xml version="1.0" encoding="UTF-8" standalone="no"?>
<svg
   xmlns:dc="http://purl.org/dc/elements/1.1/"
   xmlns:cc="http://creativecommons.org/ns#"
   xmlns:rdf="http://www.w3.org/1999/02/22-rdf-syntax-ns#"
   xmlns:svg="http://www.w3.org/2000/svg"
   xmlns="http://www.w3.org/2000/svg"
   version="1.1"
   id="svg58"
   xml:space="preserve"
   width="162.66667"
   height="162.66667"
   viewBox="0 0 162.66667 162.66667"><metadata
     id="metadata64"><rdf:RDF><cc:Work
         rdf:about=""><dc:format>image/svg+xml</dc:format><dc:type
           rdf:resource="http://purl.org/dc/dcmitype/StillImage" /><dc:title></dc:title></cc:Work></rdf:RDF></metadata><defs
     id="defs62"><clipPath
       clipPathUnits="userSpaceOnUse"
       id="clipPath76"><path
         d="M 0,0 H 122 V 122 H 0 Z"
         id="path74" /></clipPath></defs><g
     id="g66"
     transform="matrix(1.3333333,0,0,-1.3333333,0,162.66667)"><g
       id="g68" /><g
       id="g70"><g
         id="g72"
         clip-path="url(#clipPath76)"><path
           d="m 115.8492,29.8631 c 0,-0.144 -0.029,-0.286 -0.075,-0.687 -4.585,4.679 -10.195,5.251 -16.125,4.787 v 67.866 c 4.562,0.271 9.028,0.367 12.609,-3.161 2.255,-2.223 3.56,-4.905 3.567,-8.061 0.038,-20.25 0.024,-40.497 0.024,-60.744 m -20.935,33.577 c -0.228,-0.041 -0.442,-0.111 -0.658,-0.111 -3.639,-0.007 -7.28,-0.031 -10.919,0.003 -2.644,0.026 -4.663,2.076 -4.663,4.641 0,2.567 2.024,4.615 4.665,4.639 3.824,0.031 7.648,0.007 11.575,0.007 z m -38.456,25.143 c -4.093,-7.674 -8.633,-15.113 -12.979,-22.653 -1.081,-1.875 -2.167,-3.747 -3.357,-5.805 -0.289,0.45 -0.483,0.726 -0.652,1.02 -5.107,8.842 -10.236,17.673 -15.312,26.534 -6.31,11.018 -0.719,24.667 11.426,27.585 7.624,1.832 14.205,-0.382 19.057,-6.537 4.887,-6.199 5.531,-13.186 1.817,-20.144 m -2.506,-29.916 c 2.667,-0.024 4.602,-1.918 4.73,-4.574 0.274,-5.682 4.131,-9.355 9.844,-9.364 2.478,-0.005 4.956,0.004 7.434,-0.003 2.935,-0.009 5.021,-1.935 5.029,-4.629 0.009,-2.697 -2.079,-4.663 -4.995,-4.665 -11.731,-0.005 -23.463,0 -35.192,-0.003 -5.968,-0.002 -9.72,-3.583 -10.008,-9.544 -0.111,-2.317 -1.849,-4.317 -4.185,-4.348 -6.766,-0.096 -13.534,-0.033 -20.391,-0.033 v 37.17 h 1.06 c 9.059,0 18.117,-0.012 27.176,0.019 0.798,0.002 1.265,-0.219 1.63,-0.935 0.579,-1.137 1.238,-2.233 1.903,-3.322 1.101,-1.795 3.101,-1.809 4.199,-0.026 0.712,1.154 1.315,2.372 2.067,3.495 0.246,0.365 0.798,0.726 1.219,0.735 2.826,0.065 5.653,0.053 8.48,0.027 m -47.71,29.294 h 5.547 c 2.05,0 4.103,0.026 6.153,-0.025 0.375,-0.009 0.916,-0.242 1.087,-0.54 4.275,-7.401 8.513,-14.823 12.757,-22.24 0.32,-0.56 0.645,-1.115 1.031,-1.786 H 6.2422 Z m 113.587,6.874 c -2.012,6.902 -8.268,11.649 -15.445,11.717 -2.247,0.019 -4.492,0.014 -6.739,0 -1.829,-0.01 -2.699,-0.88 -2.704,-2.716 -0.012,-3.68 -0.005,-7.357 -0.005,-11.131 h -31.998 c 1.361,8.482 -0.894,15.851 -7.251,21.735 -4.841,4.483 -10.696,6.473 -17.269,5.997 -13.477,-0.981 -23.766,-13.354 -21.139,-27.828 h -1.252 c -3.913,0 -7.824,0.007 -11.737,-0.003 -1.913,-0.004 -2.769,-0.853 -2.769,-2.766 -0.004,-28.513 0.003,-57.023 -0.021,-85.534 -0.003,-1.336 0.572,-2.182 1.644,-2.812 h 57.718 c 0.218,0.152 0.444,0.294 0.651,0.457 0.805,0.637 1.163,1.461 0.88,2.461 -0.294,1.031 -1.024,1.618 -2.103,1.716 -0.385,0.034 -0.774,0.015 -1.161,0.015 H 6.2422 v 10.693 h 1.262 c 6.078,0 12.159,-0.01 18.238,0.002 5.641,0.01 9.472,3.714 9.705,9.355 0.113,2.737 2.091,4.583 4.956,4.586 11.926,0.007 23.852,-0.012 35.779,0.009 5.362,0.012 9.501,4.161 9.455,9.396 -0.043,4.929 -4.036,9.051 -8.968,9.171 -2.785,0.07 -5.573,0.01 -8.361,0.024 -2.969,0.012 -4.867,1.853 -4.98,4.805 -0.2,5.204 -4.168,9.08 -9.369,9.133 -2.127,0.022 -4.254,0.005 -6.538,0.005 0.238,0.471 0.404,0.841 0.606,1.192 4.059,7.038 8.222,14.018 12.121,21.144 1.002,1.836 2.009,2.384 4.033,2.358 9.758,-0.123 19.516,-0.055 29.272,-0.055 h 1.423 v -10.691 h -1.211 c -3.368,0 -6.737,0.012 -10.105,-0.005 -5.393,-0.027 -9.544,-4.093 -9.534,-9.316 0.009,-5.218 4.167,-9.249 9.582,-9.273 3.716,-0.014 7.432,-0.002 11.328,-0.002 v -1.377 c 0,-8.288 0,-16.575 0.002,-24.865 0,-2.288 0.767,-3.016 3.079,-3.052 2.743,-0.041 5.524,0.127 8.225,-0.248 5.838,-0.805 9.994,-6.271 9.581,-12.219 -0.404,-5.833 -5.29,-10.65 -11.148,-10.732 -7.511,-0.106 -15.024,-0.034 -22.535,-0.038 -3.291,0 -6.583,0.002 -9.874,0 -1.8,0 -2.699,-0.515 -3.04,-1.728 -0.308,-1.089 0.163,-1.976 1.543,-2.921 h 35.322 c 0.819,0.197 1.653,0.349 2.456,0.601 6.53,2.043 10.455,6.422 11.744,13.155 0.043,0.223 0.139,0.437 0.209,0.656 v 76.239 c -0.221,0.897 -0.411,1.803 -0.671,2.69"
           id="path78" /><path
           d="m 40.1052,92.6137 c -2.55,-0.007 -4.648,2.081 -4.656,4.634 -0.004,2.555 2.077,4.651 4.632,4.656 2.552,0.007 4.648,-2.079 4.656,-4.632 0.007,-2.55 -2.082,-4.651 -4.632,-4.658 m 0.091,13.938 c -5.136,0.043 -9.364,-4.105 -9.395,-9.217 -0.029,-5.086 4.076,-9.3 9.131,-9.369 5.141,-0.07 9.398,4.054 9.453,9.162 0.055,5.143 -4.076,9.381 -9.189,9.424"
           id="path80" /></g></g></g></svg>
