<?xml version="1.0" encoding="UTF-8" standalone="no"?>
<svg
   xmlns:dc="http://purl.org/dc/elements/1.1/"
   xmlns:cc="http://creativecommons.org/ns#"
   xmlns:rdf="http://www.w3.org/1999/02/22-rdf-syntax-ns#"
   xmlns:svg="http://www.w3.org/2000/svg"
   xmlns="http://www.w3.org/2000/svg"
   version="1.1"
   id="svg493"
   xml:space="preserve"
   width="80"
   height="73.333336"
   viewBox="0 0 80 73.333336"><metadata
     id="metadata499"><rdf:RDF><cc:Work
         rdf:about=""><dc:format>image/svg+xml</dc:format><dc:type
           rdf:resource="http://purl.org/dc/dcmitype/StillImage" /><dc:title></dc:title></cc:Work></rdf:RDF></metadata><defs
     id="defs497"><clipPath
       clipPathUnits="userSpaceOnUse"
       id="clipPath511"><path
         d="M 0,0 H 60 V 55 H 0 Z"
         id="path509" /></clipPath></defs><g
     id="g501"
     transform="matrix(1.3333333,0,0,-1.3333333,0,73.333333)"><g
       id="g503" /><g
       id="g505"><g
         id="g507"
         clip-path="url(#clipPath511)"><path
           d="m 25.2835,16.0884 c -8.95,0.01 -16.12,7.21 -16.09,16.16 0.03,8.91 7.21,16.07 16.12,16.05 8.95,-0.02 16.12,-7.22 16.09,-16.16 -0.02,-3.36 -1.04,-6.47 -2.8,-9.03 -1.12,-1.66 -2.54,-3.08 -4.19,-4.21 -2.59,-1.78 -5.73,-2.81 -9.13,-2.81 m 30.97,-10.72 c -0.22,0.33 -0.52,0.61 -0.81,0.89 -4.19,4.19 -8.38,8.38 -12.56,12.57 7.63,10.09 5.04,24.02 -4.4,31.06 -8.72,6.51 -21.13,5.63 -28.81,-2.12 -7.79,-7.86 -8.56,-20.29 -1.91,-28.99 7.04,-9.19 20.78,-11.79 30.92,-4.15 l 0.42,-0.42 c 0.03,-0.04 0.06,-0.08 0.1,-0.12 2.65,-2.66 5.3,-5.35 7.99,-7.98 0.13,-0.12 0.25,-0.24 0.38,-0.37 1.36,-1.37 2.74,-2.74 4.12,-4.1 1.11,-1.09 2.82,-1.16 3.97,-0.21 1.16,0.94 1.43,2.67 0.59,3.94"
           style="fill:#0c2d42;fill-opacity:1;fill-rule:nonzero;stroke:none"
           id="path513" /></g></g></g></svg>
