<?xml version="1.0" encoding="UTF-8" standalone="no"?>
<svg
   xmlns:dc="http://purl.org/dc/elements/1.1/"
   xmlns:cc="http://creativecommons.org/ns#"
   xmlns:rdf="http://www.w3.org/1999/02/22-rdf-syntax-ns#"
   xmlns:svg="http://www.w3.org/2000/svg"
   xmlns="http://www.w3.org/2000/svg"
   xmlns:sodipodi="http://sodipodi.sourceforge.net/DTD/sodipodi-0.dtd"
   xmlns:inkscape="http://www.inkscape.org/namespaces/inkscape"
   version="1.1"
   id="svg120"
   xml:space="preserve"
   width="162.66667"
   height="162.66667"
   viewBox="0 0 162.66667 162.66667"
   sodipodi:docname="portolanoPo-icon-4.svg"
   inkscape:version="1.0.2 (e86c8708, 2021-01-15)"><sodipodi:namedview
     pagecolor="#ffffff"
     bordercolor="#666666"
     borderopacity="1"
     objecttolerance="10"
     gridtolerance="10"
     guidetolerance="10"
     inkscape:pageopacity="0"
     inkscape:pageshadow="2"
     inkscape:window-width="1280"
     inkscape:window-height="1412"
     id="namedview707"
     showgrid="false"
     inkscape:zoom="6.1967211"
     inkscape:cx="81.333336"
     inkscape:cy="81.333336"
     inkscape:window-x="4240"
     inkscape:window-y="0"
     inkscape:window-maximized="0"
     inkscape:current-layer="g128" /><metadata
     id="metadata126"><rdf:RDF><cc:Work
         rdf:about=""><dc:format>image/svg+xml</dc:format><dc:type
           rdf:resource="http://purl.org/dc/dcmitype/StillImage" /><dc:title /></cc:Work></rdf:RDF></metadata><defs
     id="defs124"><clipPath
       clipPathUnits="userSpaceOnUse"
       id="clipPath138"><path
         d="M 0,0 H 122 V 122 H 0 Z"
         id="path136" /></clipPath></defs><g
     id="g128"
     transform="matrix(1.3333333,0,0,-1.3333333,0,162.66667)"><g
       id="g130" /><g
       id="g132"><g
         id="g134"
         clip-path="url(#clipPath138)"><path
           d="m 73.2688,57.4881 -0.228,0.312 c -0.278,-0.096 -0.562,-0.169 -0.848,-0.217 -0.577,-0.1 -1.167,-0.1 -1.744,-0.001 -0.289,0.052 -0.564,0.124 -0.842,0.219 -0.183,0.062 -0.363,0.135 -0.545,0.219 -0.412,0.186 -0.814,0.421 -1.199,0.698 -0.247,0.175 -0.492,0.342 -0.737,0.498 -4.327,2.765 -8.72,2.605 -13.059,-0.48 -0.407,-0.291 -0.822,-0.532 -1.237,-0.718 -0.181,-0.085 -0.362,-0.156 -0.546,-0.218 -0.293,-0.099 -0.581,-0.172 -0.861,-0.217 -0.483,-0.082 -0.976,-0.089 -1.466,-0.026 -0.057,0.007 -0.116,0.015 -0.262,0.042 -0.082,0.014 -0.163,0.031 -0.253,0.054 -0.172,0.039 -0.345,0.089 -0.518,0.148 -0.183,0.062 -0.369,0.135 -0.553,0.219 -0.36,0.163 -0.731,0.371 -1.151,0.654 l -0.158,0.11 c -0.064,0.047 -0.126,0.091 -0.172,0.118 -2.666,1.846 -5.376,2.574 -8.074,2.191 l 12.961,12.961 16.159,16.158 c 0.925,0.93 2.544,0.928 3.469,0 l 29.186,-29.188 c -0.153,-0.029 -0.306,-0.061 -0.461,-0.098 -0.097,-0.02 -0.195,-0.044 -0.274,-0.067 -0.094,-0.023 -0.187,-0.048 -0.276,-0.075 -1.344,-0.389 -2.713,-1.075 -4.069,-2.04 -2.256,-1.613 -4.635,-1.628 -6.88,-0.048 -3.596,2.531 -7.037,3.126 -10.521,1.821 -0.082,-0.03 -0.163,-0.062 -0.234,-0.092 -0.083,-0.031 -0.168,-0.066 -0.237,-0.098 -0.724,-0.303 -1.467,-0.699 -2.21,-1.177 l -0.684,-0.462 c -0.371,-0.263 -0.761,-0.489 -1.157,-0.669 -0.149,-0.068 -0.299,-0.129 -0.447,-0.184 z m -69.668,-3.091 h 0.004 c 0.124,-0.019 0.252,-0.03 0.38,-0.03 0.079,0 0.155,0.003 0.144,0.012 0.379,-0.051 0.782,-0.213 1.195,-0.484 1.319,-0.862 2.585,-1.293 3.838,-1.293 1.325,0 2.636,0.483 3.983,1.449 1.846,1.325 3.747,2.067 5.664,2.207 0.094,0.011 0.188,0.016 0.283,0.019 0.102,0.005 0.204,0.007 0.31,0.007 0.674,0.017 1.374,-0.062 2.061,-0.212 0.674,-0.145 1.354,-0.367 2.019,-0.659 0.2,-0.09 0.401,-0.183 0.613,-0.295 0.234,-0.113 0.466,-0.241 0.7,-0.381 0.359,-0.208 0.729,-0.45 1.101,-0.716 1.32,-0.945 2.691,-1.414 4.018,-1.404 1.315,0.012 2.63,0.484 3.91,1.401 2.067,1.481 4.176,2.246 6.267,2.276 2.166,0.032 4.396,-0.739 6.578,-2.295 0.426,-0.304 0.836,-0.547 1.302,-0.766 0.199,-0.095 0.397,-0.179 0.586,-0.244 0.173,-0.066 0.346,-0.121 0.516,-0.165 1.142,-0.309 2.298,-0.273 3.439,0.115 0.088,0.03 0.175,0.059 0.289,0.105 0.075,0.029 0.149,0.059 0.214,0.087 0.501,0.217 0.999,0.501 1.481,0.845 0.988,0.701 1.98,1.249 2.948,1.628 1.748,0.686 3.518,0.862 5.256,0.517 1.066,-0.209 2.152,-0.616 3.228,-1.21 0.065,-0.035 0.133,-0.072 0.207,-0.116 l 0.198,-0.117 c 0.365,-0.217 0.733,-0.457 1.1,-0.72 0.308,-0.22 0.627,-0.418 0.944,-0.584 0.08,-0.044 0.161,-0.085 0.227,-0.114 0.083,-0.042 0.166,-0.08 0.245,-0.113 2.106,-0.924 4.293,-0.654 6.324,0.779 4.439,3.138 8.583,3.141 13.032,0.007 0.818,-0.575 1.665,-0.964 2.516,-1.158 1.744,-0.401 3.549,0.015 5.22,1.207 0.872,0.623 1.752,1.124 2.613,1.492 1.514,0.647 3.045,0.912 4.538,0.789 l 0.573,-0.066 c 0.831,-0.12 1.674,-0.358 2.571,-0.736 l 0.375,-0.168 c 0.75,-0.351 1.513,-0.802 2.268,-1.34 2.336,-1.661 5.013,-1.762 7.344,-0.28 0.606,0.388 1.071,0.617 1.456,0.717 0.274,-0.04 0.56,-0.028 0.83,0.026 1.154,0.233 1.991,1.258 1.991,2.438 0,0.382 -0.087,0.76 -0.255,1.098 l -0.045,0.086 c -0.303,0.558 -0.8,0.975 -1.374,1.163 -0.293,0.123 -0.606,0.168 -0.912,0.136 -0.46,-0.02 -0.901,-0.163 -1.237,-0.393 -0.261,-0.13 -0.543,-0.294 -0.852,-0.489 -2.097,-1.332 -4.409,-1.242 -6.517,0.258 -0.433,0.308 -0.837,0.57 -1.231,0.798 l -33.685,33.687 c -1.26,1.261 -2.937,1.955 -4.722,1.955 -1.785,0 -3.461,-0.694 -4.721,-1.954 l -35.649,-35.651 c -0.086,0.009 -0.172,0.021 -0.257,0.035 -0.288,0.049 -0.575,0.122 -0.858,0.218 -0.184,0.062 -0.367,0.136 -0.554,0.22 -0.424,0.189 -0.863,0.444 -1.303,0.759 -2.027,1.45 -4.112,2.251 -6.213,2.385 l 20.28,20.279 c 0.957,0.959 2.514,0.957 3.469,0 l 2.728,-2.726 2.986,2.987 -2.728,2.726 c -1.262,1.26 -2.938,1.954 -4.72,1.954 -1.784,0 -3.461,-0.694 -4.722,-1.954 l -26.648,-26.652 c -1.649,-0.556 -3.251,-0.269 -5.055,0.909 -0.056,0.037 -0.134,0.079 -0.115,0.064 -0.66,0.56 -1.507,0.77 -2.472,0.431 -0.968,-0.361 -1.618,-1.297 -1.618,-2.329 0,-1.234 0.884,-2.267 2.101,-2.457"
           id="path140" /><path
           d="m 118.0152,46.3807 c -0.548,0 -1.068,-0.174 -1.452,-0.471 -0.229,-0.122 -0.475,-0.265 -0.739,-0.434 -2.095,-1.332 -4.41,-1.24 -6.515,0.259 -0.792,0.564 -1.594,1.037 -2.459,1.442 l -0.393,0.174 c -0.889,0.374 -1.793,0.629 -2.684,0.758 -0.1,0.015 -0.201,0.029 -0.31,0.042 l -0.305,0.029 c -1.626,0.13 -3.27,-0.151 -4.895,-0.847 -0.91,-0.387 -1.836,-0.915 -2.753,-1.569 -1.514,-1.08 -3.068,-1.447 -4.624,-1.089 -0.758,0.173 -1.516,0.523 -2.256,1.042 -4.74,3.337 -9.151,3.336 -13.886,-0.007 -1.803,-1.276 -3.74,-1.522 -5.605,-0.703 -0.067,0.028 -0.134,0.059 -0.218,0.101 -0.065,0.029 -0.127,0.06 -0.195,0.098 -0.292,0.153 -0.582,0.333 -0.863,0.534 -0.385,0.275 -0.769,0.526 -1.15,0.753 l -0.208,0.122 c -0.074,0.044 -0.15,0.086 -0.221,0.125 -1.143,0.63 -2.3,1.063 -3.441,1.287 -1.882,0.367 -3.787,0.182 -5.67,-0.555 -1.027,-0.403 -2.072,-0.979 -3.106,-1.714 -0.441,-0.314 -0.893,-0.572 -1.352,-0.771 -0.06,-0.027 -0.121,-0.05 -0.219,-0.088 -0.073,-0.029 -0.149,-0.055 -0.223,-0.08 -0.999,-0.341 -2.009,-0.373 -3.012,-0.1 -0.148,0.038 -0.295,0.085 -0.452,0.145 -0.173,0.06 -0.347,0.134 -0.572,0.243 -0.377,0.175 -0.749,0.396 -1.139,0.674 -2.313,1.649 -4.695,2.453 -7.018,2.432 -2.245,-0.032 -4.495,-0.844 -6.689,-2.414 -1.152,-0.827 -2.325,-1.252 -3.484,-1.263 h -0.044 c -1.173,0 -2.363,0.426 -3.537,1.266 -0.39,0.28 -0.78,0.534 -1.155,0.752 -0.252,0.15 -0.501,0.288 -0.742,0.403 -0.215,0.115 -0.431,0.216 -0.65,0.313 -0.711,0.311 -1.438,0.549 -2.159,0.704 -0.7,0.153 -1.406,0.231 -2.098,0.231 -0.155,10e-4 -0.31,0 -0.464,-0.008 -0.112,-0.006 -0.223,-0.011 -0.318,-0.022 -2.041,-0.15 -4.068,-0.937 -6.027,-2.343 -2.352,-1.687 -4.49,-1.74 -6.92,-0.18 l -10e-4,0.165 h -0.232 c -0.441,0.364 -0.995,0.564 -1.575,0.564 -0.408,0 -0.811,-0.1 -1.091,-0.26 l -0.094,-0.041 c -0.802,-0.437 -1.3,-1.275 -1.3,-2.186 0,-1.267 0.949,-2.329 2.204,-2.47 0.091,-0.012 0.186,-0.017 0.281,-0.017 0.044,0 0.088,0 0.071,0.004 0.4,-0.04 0.827,-0.207 1.267,-0.494 1.321,-0.862 2.586,-1.294 3.839,-1.294 1.326,10e-4 2.636,0.483 3.983,1.449 1.844,1.324 3.744,2.068 5.663,2.208 0.084,0.01 0.167,0.014 0.284,0.019 0.102,0.004 0.203,0.006 0.309,0.006 0.686,0.016 1.373,-0.061 2.062,-0.211 0.674,-0.146 1.353,-0.368 2.016,-0.659 0.203,-0.09 0.404,-0.184 0.614,-0.294 0.234,-0.115 0.467,-0.241 0.703,-0.383 0.356,-0.207 0.715,-0.441 1.101,-0.716 1.319,-0.943 2.642,-1.426 4.017,-1.404 1.315,0.012 2.63,0.484 3.908,1.402 2.071,1.481 4.179,2.246 6.268,2.275 2.167,0.045 4.396,-0.739 6.578,-2.295 0.428,-0.304 0.839,-0.546 1.215,-0.72 l 0.089,-0.046 c 0.197,-0.094 0.395,-0.178 0.586,-0.245 0.172,-0.064 0.344,-0.119 0.514,-0.164 1.14,-0.309 2.297,-0.271 3.439,0.115 0.09,0.03 0.179,0.061 0.254,0.092 0.087,0.033 0.175,0.067 0.249,0.102 0.503,0.217 1.002,0.501 1.483,0.843 0.984,0.701 1.976,1.248 2.946,1.628 1.751,0.685 3.519,0.862 5.257,0.518 1.067,-0.21 2.152,-0.616 3.228,-1.211 0.065,-0.035 0.133,-0.071 0.206,-0.116 l 0.199,-0.115 c 0.365,-0.218 0.732,-0.459 1.099,-0.721 0.305,-0.218 0.624,-0.416 0.944,-0.584 0.081,-0.044 0.162,-0.086 0.231,-0.116 0.08,-0.04 0.161,-0.077 0.241,-0.112 2.108,-0.922 4.295,-0.654 6.324,0.78 4.441,3.139 8.582,3.14 13.032,0.007 0.817,-0.574 1.663,-0.964 2.517,-1.159 1.746,-0.402 3.551,0.016 5.219,1.208 0.871,0.622 1.751,1.124 2.614,1.492 1.514,0.647 3.042,0.917 4.542,0.787 l 0.568,-0.063 c 0.831,-0.121 1.675,-0.359 2.537,-0.722 l 0.41,-0.183 c 0.754,-0.353 1.516,-0.804 2.268,-1.341 2.334,-1.661 5.01,-1.764 7.342,-0.28 0.64,0.406 1.122,0.64 1.509,0.731 0.243,-0.034 0.499,-0.021 0.722,0.023 1.186,0.208 2.048,1.237 2.048,2.446 0,0.386 -0.092,0.771 -0.265,1.115 -0.425,0.847 -1.276,1.372 -2.22,1.372"
           id="path142" /></g></g></g></svg>
