<?xml version="1.0" encoding="UTF-8" standalone="no"?>
<svg
   xmlns:dc="http://purl.org/dc/elements/1.1/"
   xmlns:cc="http://creativecommons.org/ns#"
   xmlns:rdf="http://www.w3.org/1999/02/22-rdf-syntax-ns#"
   xmlns:svg="http://www.w3.org/2000/svg"
   xmlns="http://www.w3.org/2000/svg"
   version="1.1"
   id="svg184"
   xml:space="preserve"
   width="162.66667"
   height="162.66667"
   viewBox="0 0 162.66667 162.66667"><metadata
     id="metadata190"><rdf:RDF><cc:Work
         rdf:about=""><dc:format>image/svg+xml</dc:format><dc:type
           rdf:resource="http://purl.org/dc/dcmitype/StillImage" /><dc:title></dc:title></cc:Work></rdf:RDF></metadata><defs
     id="defs188"><clipPath
       clipPathUnits="userSpaceOnUse"
       id="clipPath202"><path
         d="M 0,0 H 122 V 122 H 0 Z"
         id="path200" /></clipPath></defs><g
     id="g192"
     transform="matrix(1.3333333,0,0,-1.3333333,0,162.66667)"><g
       id="g194" /><g
       id="g196"><g
         id="g198"
         clip-path="url(#clipPath202)"><path
           d="m 103.7701,93.894 c -1.914,-2.787 -3.748,-5.643 -5.673,-8.429 -0.247,-0.367 -0.823,-0.714 -1.249,-0.714 -21.003,-0.03 -42.007,-0.02 -63.02,-0.02 -0.119,0 -0.238,0.029 -0.446,0.059 v 19.804 h 1.319 c 20.547,0 41.094,0 61.651,0.03 0.992,0 1.547,-0.328 2.063,-1.141 1.745,-2.707 3.53,-5.385 5.355,-8.042 0.387,-0.575 0.387,-0.972 0,-1.547 M 57.1821,80.675 h 7.775 V 72.87 h -7.775 z m 31.118,-11.851 c 0.119,0 0.228,-0.049 0.396,-0.079 V 48.951 h -1.348 c -20.547,0 -41.095,0.011 -61.652,-0.019 -0.932,0 -1.468,0.277 -1.983,1.071 -1.726,2.717 -3.52,5.394 -5.345,8.062 -0.397,0.585 -0.457,1.002 -0.02,1.626 1.923,2.797 3.748,5.643 5.662,8.44 0.238,0.337 0.764,0.664 1.16,0.664 21.044,0.04 42.087,0.029 63.13,0.029 m 19.615,27.539 c -2.38,3.471 -4.72,6.981 -6.991,10.532 -0.773,1.209 -1.686,1.715 -3.154,1.705 -9.113,-0.049 -18.236,-0.03 -27.369,-0.03 h -1.419 v 0.05 h -11.831 v 7.844 h 7.765 v -3.421 h 4.046 c 0,1.537 0,3.064 0.04,4.572 0.03,1.219 -0.257,2.181 -1.27,2.885 h -13.377 c -1.021,-0.704 -1.289,-1.666 -1.259,-2.876 0.069,-2.975 0.02,-5.94 0.02,-9.054 h -1.428 c -6.565,0 -13.14,0.011 -19.695,0 -2.023,0 -2.658,-0.634 -2.658,-2.667 V 83.422 c 0,-2.023 0.635,-2.658 2.658,-2.658 6.971,-0.01 13.963,-0.01 21.023,-0.01 v -7.953 h -1.289 c -9.173,0 -18.336,-0.02 -27.499,0.03 -1.358,0 -2.231,-0.446 -2.965,-1.577 -2.558,-3.897 -5.186,-7.755 -7.794,-11.622 v -1.488 c 2.578,-3.828 5.186,-7.635 7.715,-11.493 0.783,-1.22 1.706,-1.706 3.153,-1.696 8.519,0.05 17.037,0.02 25.566,0.02 h 9.123 v -0.05 h 5.92 V 5.566 h -7.775 v 34.996 h -4.155 V 5.467 h -1.259 c -5.9,0 -11.801,-0.01 -17.701,0.01 -1.15,0 -2.172,-0.119 -2.618,-1.369 -0.436,-1.199 0.327,-1.914 1.111,-2.608 h 54.025 c 0.784,0.694 1.557,1.409 1.111,2.608 -0.446,1.25 -1.477,1.379 -2.618,1.369 -3.302,-0.03 -11.583,-0.01 -14.875,-0.01 h -1.15 v 39.508 h 20.973 c 2.113,0.01 2.738,0.625 2.738,2.717 0.009,7.448 0.009,14.905 0,22.352 0,2.132 -0.606,2.757 -2.688,2.757 -6.575,0.01 -13.139,0 -19.695,0 h -1.299 v 7.953 h 1.449 c 9.133,0 18.256,0.02 27.369,-0.019 1.369,-0.011 2.231,0.476 2.955,1.596 2.301,3.58 4.661,7.12 7.061,10.641 0.833,1.19 0.833,2.181 0.01,3.391"
           id="path204" /></g></g></g></svg>
