<?xml version="1.0" encoding="UTF-8" standalone="no"?>
<svg
   xmlns:dc="http://purl.org/dc/elements/1.1/"
   xmlns:cc="http://creativecommons.org/ns#"
   xmlns:rdf="http://www.w3.org/1999/02/22-rdf-syntax-ns#"
   xmlns:svg="http://www.w3.org/2000/svg"
   xmlns="http://www.w3.org/2000/svg"
   version="1.1"
   id="svg307"
   xml:space="preserve"
   width="162.66667"
   height="162.66667"
   viewBox="0 0 162.66667 162.66667"><metadata
     id="metadata313"><rdf:RDF><cc:Work
         rdf:about=""><dc:format>image/svg+xml</dc:format><dc:type
           rdf:resource="http://purl.org/dc/dcmitype/StillImage" /><dc:title></dc:title></cc:Work></rdf:RDF></metadata><defs
     id="defs311"><clipPath
       clipPathUnits="userSpaceOnUse"
       id="clipPath325"><path
         d="M 0,0 H 122 V 122 H 0 Z"
         id="path323" /></clipPath></defs><g
     id="g315"
     transform="matrix(1.3333333,0,0,-1.3333333,0,162.66667)"><g
       id="g317" /><g
       id="g319"><g
         id="g321"
         clip-path="url(#clipPath325)"><path
           d="m 115.7935,18.3649 c -2.656,0.899 -5.24,1.774 -7.85,2.656 v 11.112 c 0,4.258 0.007,8.516 -0.007,12.774 0,0.498 -0.03,1.017 -0.172,1.488 -0.308,0.999 -1.076,1.532 -2.086,1.555 -1.064,0.021 -1.874,-0.51 -2.198,-1.555 -0.158,-0.506 -0.177,-1.066 -0.177,-1.602 -0.012,-6.931 -0.007,-13.861 -0.007,-20.79 v -1.41 c -17.195,5.827 -34.271,11.614 -51.513,17.455 21.5,21.295 42.881,42.476 64.01,63.405 z m -65.148,-2.554 c -0.096,0.054 -0.194,0.107 -0.291,0.163 v 19.642 c 4.982,-1.683 9.896,-3.346 14.655,-4.954 -4.801,-4.964 -9.582,-9.908 -14.364,-14.851 m -2.838,26.891 c -0.78,-0.782 -1.39,-0.873 -2.396,-0.528 -11.41,3.909 -22.838,7.766 -34.262,11.643 -0.351,0.118 -0.694,0.272 -1.264,0.5 33.319,16.913 66.436,33.722 99.552,50.533 0.084,-0.107 0.168,-0.212 0.252,-0.319 -0.314,-0.228 -0.666,-0.417 -0.936,-0.689 -20.326,-20.368 -40.653,-40.739 -60.946,-61.14 m 72.665,69.383 c -0.184,1.57 -1.664,2.48 -3.143,1.933 -0.398,-0.147 -0.777,-0.345 -1.154,-0.538 -37.554,-19.058 -75.108,-38.115 -112.645,-57.205 -0.778,-0.396 -1.358,-1.18 -2.031,-1.781 v -1.394 c 0.601,-0.964 1.504,-1.456 2.564,-1.812 11.761,-3.957 23.511,-7.941 35.263,-11.922 2.111,-0.714 4.216,-1.438 6.33,-2.162 v -1.386 c 0,-8.248 -0.003,-16.496 0,-24.742 0,-0.426 -0.026,-0.859 0.039,-1.276 0.256,-1.651 2.014,-2.493 3.441,-1.639 0.426,0.254 0.796,0.615 1.152,0.966 6.396,6.309 12.793,12.616 19.165,18.951 0.596,0.593 1.073,0.735 1.909,0.449 10.677,-3.66 21.372,-7.268 32.062,-10.891 4.393,-1.487 8.784,-2.98 13.179,-4.465 2.601,-0.88 3.888,0.028 3.89,2.733 v 95.022 c 0,0.387 0.024,0.778 -0.021,1.159"
           id="path327" /></g></g></g></svg>
