<?xml version="1.0" encoding="UTF-8" standalone="no"?>
<svg
   xmlns:dc="http://purl.org/dc/elements/1.1/"
   xmlns:cc="http://creativecommons.org/ns#"
   xmlns:rdf="http://www.w3.org/1999/02/22-rdf-syntax-ns#"
   xmlns:svg="http://www.w3.org/2000/svg"
   xmlns="http://www.w3.org/2000/svg"
   version="1.1"
   id="svg62"
   xml:space="preserve"
   width="162.66667"
   height="162.66667"
   viewBox="0 0 162.66667 162.66667"><metadata
     id="metadata68"><rdf:RDF><cc:Work
         rdf:about=""><dc:format>image/svg+xml</dc:format><dc:type
           rdf:resource="http://purl.org/dc/dcmitype/StillImage" /><dc:title></dc:title></cc:Work></rdf:RDF></metadata><defs
     id="defs66"><clipPath
       clipPathUnits="userSpaceOnUse"
       id="clipPath80"><path
         d="M 0,0 H 122 V 122 H 0 Z"
         id="path78" /></clipPath></defs><g
     id="g70"
     transform="matrix(1.3333333,0,0,-1.3333333,0,162.66667)"><g
       id="g72" /><g
       id="g74"><g
         id="g76"
         clip-path="url(#clipPath80)"><path
           d="m 81.5224,5.4691 c -21.809,-0.002 -43.618,-0.005 -65.428,0 -4.125,0 -6.535,2.415 -6.55,6.535 -0.01,3.052 -0.002,6.104 -0.002,9.242 h 71.251 c 0,-2.662 0.045,-5.221 -0.012,-7.777 -0.062,-2.764 0.131,-5.449 1.971,-7.923 -0.541,-0.035 -0.885,-0.077 -1.23,-0.077 m 19.06,88.529 c -0.003,6.436 -4.192,10.63 -10.609,10.633 -19.335,0.007 -38.67,0.007 -58.005,-0.013 -1.061,-0.002 -2.159,-0.091 -3.175,-0.372 -4.679,-1.294 -7.371,-5.037 -7.373,-10.171 -0.008,-19.995 -0.003,-39.99 0,-59.984 0,-0.372 -0.023,-0.751 0.042,-1.113 0.181,-1.021 0.823,-1.644 1.844,-1.691 1.027,-0.047 1.731,0.528 1.969,1.532 0.121,0.511 0.096,1.064 0.096,1.599 0.005,19.913 0,39.826 0.008,59.736 0.002,4.014 2.407,6.503 6.327,6.505 19.54,0.015 39.081,0.015 58.622,0 3.791,-0.002 6.287,-2.499 6.29,-6.304 0.015,-27.512 0.015,-55.026 0.002,-82.539 -0.002,-3.645 -2.516,-6.307 -5.883,-6.339 -3.419,-0.035 -5.957,2.65 -5.982,6.351 -0.018,2.809 -0.003,5.618 -0.003,8.427 -0.002,3.647 -1.378,5.045 -4.975,5.045 h -40.567 c -9.77,0 -19.541,0.007 -29.311,-0.005 -2.707,-0.002 -4.297,-1.607 -4.311,-4.319 -0.018,-3.099 -0.015,-6.198 0,-9.297 0.012,-2.474 0.746,-4.69 2.337,-6.626 1.659,-2.016 3.883,-2.968 6.325,-3.553 h 77.685 c 0.066,0.045 0.131,0.119 0.203,0.129 5.077,0.823 8.479,5.07 8.469,10.571 -0.047,27.266 -0.018,54.532 -0.025,81.798"
           id="path82" /><path
           d="m 116.4117,34.815 c -0.003,-3.015 0.079,-6.044 -0.213,-9.034 -0.459,-4.636 -4.745,-8.32 -9.409,-8.397 -1.244,-0.02 -2.152,0.731 -2.223,1.844 -0.07,1.047 0.689,1.9 1.856,2.09 4.398,0.714 6.037,2.636 6.037,7.083 v 81.057 c 0,4.809 -2.248,7.075 -7.021,7.075 h -57.264 c -4.341,0 -6.294,-1.683 -6.976,-5.997 -0.196,-1.232 -1.103,-2.025 -2.177,-1.904 -1.105,0.127 -1.787,1.022 -1.75,2.306 0.129,4.524 3.426,8.397 7.953,9.346 0.236,0.05 0.461,0.144 0.694,0.216 h 61.848 c 2.392,-0.595 4.584,-1.517 6.233,-3.478 1.8,-2.14 2.427,-4.619 2.424,-7.349 -0.01,-24.952 0,-49.905 -0.012,-74.858"
           id="path84" /><path
           d="m 82.7497,70.8968 c -0.015,-1.212 -0.94,-1.959 -2.504,-1.961 -6.753,-0.007 -13.506,-0.002 -20.26,-0.002 -6.589,0 -13.179,0 -19.769,0.002 -0.409,0 -0.83,-0.03 -1.229,0.045 -1.064,0.2 -1.711,0.857 -1.701,1.956 0.012,1.098 0.677,1.735 1.738,1.923 0.359,0.065 0.739,0.038 1.108,0.038 13.261,0.002 26.522,0.002 39.781,0.002 0.124,0 0.248,0.003 0.372,0 1.552,-0.03 2.479,-0.783 2.464,-2.003"
           id="path86" /><path
           d="m 82.7497,59.0489 c 0.022,-1.185 -0.883,-2.006 -2.328,-2.008 -6.505,-0.015 -13.013,-0.008 -19.518,-0.008 h -0.866 c -6.629,0 -13.261,-0.002 -19.89,0.005 -0.491,0 -1.004,-0.007 -1.468,0.124 -0.88,0.251 -1.386,0.898 -1.398,1.823 -0.012,0.979 0.518,1.641 1.453,1.906 0.387,0.112 0.813,0.104 1.222,0.104 13.343,0.005 26.686,0.005 40.029,0.005 0.163,0 0.329,0.005 0.493,-0.002 1.369,-0.052 2.249,-0.809 2.271,-1.949"
           id="path88" /><path
           d="m 82.7497,47.1117 c -0.003,-1.247 -0.947,-1.976 -2.613,-1.976 -6.753,-0.005 -13.507,-0.002 -20.26,-0.002 -6.59,0 -13.177,-0.003 -19.766,0.005 -0.451,0 -0.92,-0.018 -1.349,0.096 -0.937,0.248 -1.48,0.905 -1.48,1.887 0.003,0.979 0.548,1.639 1.49,1.879 0.469,0.119 0.979,0.094 1.47,0.097 13.177,0.002 26.356,0.002 39.533,0.002 h 0.372 c 1.661,-0.017 2.605,-0.736 2.603,-1.988"
           id="path90" /><path
           d="m 74.8311,35.2489 c 0.025,-1.183 -0.88,-2.003 -2.325,-2.008 -5.474,-0.017 -10.951,-0.008 -16.427,-0.008 -5.353,0 -10.703,-0.004 -16.055,0.008 -0.489,0 -1.123,-0.077 -1.433,0.186 -0.543,0.461 -1.252,1.175 -1.225,1.753 0.03,0.647 0.726,1.338 1.279,1.854 0.26,0.243 0.863,0.161 1.312,0.161 10.705,0.008 21.407,0.005 32.112,0.005 0.164,0 0.33,0.005 0.494,-0.002 1.368,-0.052 2.246,-0.809 2.268,-1.949"
           id="path92" /><path
           d="m 82.7497,82.8638 c 0.032,-1.188 -0.873,-2.018 -2.313,-2.023 -5.186,-0.017 -10.375,-0.007 -15.562,-0.007 -5.062,0 -10.127,-0.035 -15.19,0.039 -0.729,0.013 -1.653,0.372 -2.129,0.895 -0.93,1.022 -0.219,2.645 1.18,2.955 0.434,0.097 0.9,0.075 1.351,0.075 9.921,0.002 19.841,0.002 29.762,0.002 0.206,0 0.412,0.005 0.618,-0.002 1.373,-0.05 2.251,-0.796 2.283,-1.934"
           id="path94" /></g></g></g></svg>
