<?xml version="1.0" encoding="UTF-8" standalone="no"?>
<svg
   xmlns:dc="http://purl.org/dc/elements/1.1/"
   xmlns:cc="http://creativecommons.org/ns#"
   xmlns:rdf="http://www.w3.org/1999/02/22-rdf-syntax-ns#"
   xmlns:svg="http://www.w3.org/2000/svg"
   xmlns="http://www.w3.org/2000/svg"
   version="1.1"
   id="svg109"
   xml:space="preserve"
   width="162.66667"
   height="162.66667"
   viewBox="0 0 162.66667 162.66667"><metadata
     id="metadata115"><rdf:RDF><cc:Work
         rdf:about=""><dc:format>image/svg+xml</dc:format><dc:type
           rdf:resource="http://purl.org/dc/dcmitype/StillImage" /><dc:title></dc:title></cc:Work></rdf:RDF></metadata><defs
     id="defs113"><clipPath
       clipPathUnits="userSpaceOnUse"
       id="clipPath127"><path
         d="M 0,0 H 122 V 122 H 0 Z"
         id="path125" /></clipPath></defs><g
     id="g117"
     transform="matrix(1.3333333,0,0,-1.3333333,0,162.66667)"><g
       id="g119" /><g
       id="g121"><g
         id="g123"
         clip-path="url(#clipPath127)"><path
           d="m 69.8031,46.0697 0.007,-39.825 h -17.53 l 0.006,39.825 z m -56.424,22.936 c -0.301,-0.233 -0.615,-0.449 -0.836,-0.61 -1.692,1.695 -3.32,3.327 -5.037,5.049 17.756,13.86 35.589,27.78 53.49,41.753 17.87,-13.95 35.705,-27.87 53.462,-41.73 -1.704,-1.697 -3.336,-3.324 -5.068,-5.049 -0.819,0.634 -1.795,1.379 -2.763,2.133 -14.553,11.359 -29.104,22.721 -43.658,34.081 -1.596,1.245 -2.367,1.233 -4.01,-0.049 -15.194,-11.86 -30.387,-23.72 -45.58,-35.578 m 78.711,30.538 c 0.195,2.495 0.046,5.016 0.046,7.603 h 8.765 v -17.196 c -2.291,1.79 -4.356,3.601 -6.623,5.11 -1.716,1.138 -2.349,2.442 -2.188,4.483 m 25.263,-93.388 c -2.09,0.002 -4.183,0 -6.273,0 h -3.147 v 13.161 c 0,2.789 0.021,13.709 -0.012,16.497 0,0.007 -10e-4,0.014 -10e-4,0.02 10e-4,0.04 0.004,0.078 0.003,0.118 -0.009,0.369 -0.11,0.719 -0.279,1.029 -0.004,0.008 -0.008,0.016 -0.012,0.024 -0.008,0.014 -0.016,0.027 -0.024,0.041 -0.391,0.71 -1.113,1.153 -1.965,1.164 -0.01,0 -0.02,0.002 -0.031,0.002 -0.001,0 -0.002,0 -0.002,0 -0.001,0 -0.002,0 -0.003,0 -0.664,0 -1.239,-0.264 -1.651,-0.709 -0.42,-0.432 -0.678,-1.022 -0.662,-1.658 0,-0.001 0,-0.002 0,-0.002 -0.001,-0.01 -0.002,-0.019 -0.003,-0.029 -0.014,-0.309 -0.004,-0.619 -0.004,-0.928 V 6.2447 h -28.775 c 0.002,6.611 0,13.22 0,19.832 0,7.274 0.002,14.551 -0.002,21.827 0,2.011 -0.824,2.861 -2.791,2.861 -14.556,0.005 -6.855,0.005 -21.41,0 -1.974,0 -2.803,-0.847 -2.805,-2.849 0,-0.616 0,-1.232 0,-1.848 h -0.01 v -17.515 h 0.01 c 0,-1.605 0,-3.21 0,-4.816 h -0.017 V 6.2447 h -17.637 l -4.646,0.007 h -6.474 c -0.014,0.246 -0.032,0.4 -0.032,0.554 0,19.865 0.004,39.73 -0.024,59.595 0,0.799 0.405,1.164 0.934,1.576 10.868,8.476 21.732,16.958 32.595,25.438 2.924,2.281 5.85,4.56 8.751,6.82 0.188,-0.111 0.295,-0.158 0.384,-0.228 13.766,-10.742 27.533,-21.48 41.273,-32.253 0.373,-0.294 0.643,-0.952 0.645,-1.443 0.042,-6.933 0.024,-13.865 0.033,-20.795 0.002,-1.592 0.94,-2.635 2.311,-2.642 1.369,-0.004 2.314,1.041 2.328,2.626 0.019,1.974 0.005,3.95 0.005,5.924 v 12.112 c 1.815,-1.301 3.077,-0.526 4.329,0.78 2.251,2.348 4.588,4.611 6.886,6.915 1.867,1.87 1.813,3.05 -0.242,4.658 -4.113,3.224 -8.226,6.451 -12.37,9.635 -0.68,0.524 -0.954,1.047 -0.95,1.92 0.04,7.242 0.028,14.484 0.019,21.723 -0.002,1.73 -0.866,2.686 -2.488,2.696 -4.377,0.023 -8.753,0.023 -13.129,0 -1.592,-0.007 -2.472,-0.941 -2.495,-2.575 -0.021,-1.508 -0.005,-3.019 -0.005,-4.53 v -4.327 c -0.608,0.468 -1.001,0.766 -1.39,1.071 -7.723,6.024 -15.445,12.051 -23.168,18.075 -1.578,1.231 -2.316,1.215 -3.913,-0.03 -18.587,-14.507 -37.177,-29.009 -55.753,-43.527 -0.654,-0.513 -1.18,-1.188 -1.764,-1.788 v -1.392 c 1.478,-1.569 2.942,-3.154 4.441,-4.705 1.264,-1.305 2.568,-2.574 3.855,-3.859 1.667,-1.669 2.1,-1.762 4.197,-0.878 V 6.1557 h -1.213 c -2.707,0 -5.419,-0.06 -8.124,0.026 -1.431,0.044 -2.476,-0.391 -3.156,-1.651 v -3.021 h 59.186 0.63 57.539 c 1.38,0.943 1.848,1.832 1.541,2.919 -0.343,1.215 -1.241,1.727 -3.043,1.727"
           style=""
           id="path129" /></g></g></g></svg>
