<?xml version="1.0" encoding="UTF-8" standalone="no"?>
<svg
   xmlns:dc="http://purl.org/dc/elements/1.1/"
   xmlns:cc="http://creativecommons.org/ns#"
   xmlns:rdf="http://www.w3.org/1999/02/22-rdf-syntax-ns#"
   xmlns:svg="http://www.w3.org/2000/svg"
   xmlns="http://www.w3.org/2000/svg"
   version="1.1"
   id="svg10"
   xml:space="preserve"
   width="162.66667"
   height="162.66667"
   viewBox="0 0 162.66667 162.66667"><metadata
     id="metadata16"><rdf:RDF><cc:Work
         rdf:about=""><dc:format>image/svg+xml</dc:format><dc:type
           rdf:resource="http://purl.org/dc/dcmitype/StillImage" /><dc:title></dc:title></cc:Work></rdf:RDF></metadata><defs
     id="defs14"><clipPath
       clipPathUnits="userSpaceOnUse"
       id="clipPath26"><path
         d="M 0,122 H 122 V 0 H 0 Z"
         id="path24" /></clipPath></defs><g
     id="g18"
     transform="matrix(1.3333333,0,0,-1.3333333,0,162.66667)"><g
       id="g20"><g
         id="g22"
         clip-path="url(#clipPath26)"><g
           id="g28"
           transform="translate(105.5731,70.1046)"><path
             d="m 0,0 c -0.228,-1.082 -0.914,-1.837 -2.056,-2.215 -1.112,-0.377 -1.986,-0.01 -2.82,0.566 -1.967,1.351 -3.893,2.751 -5.83,4.152 -0.089,0.059 -0.169,0.208 -0.169,0.317 -0.01,1.56 -0.01,3.129 -0.01,4.758 1.103,0 2.116,0.069 3.109,-0.03 0.397,-0.04 0.764,-0.407 1.132,-0.656 C -4.807,5.591 -2.969,4.281 -1.142,2.96 -0.129,2.235 0.238,1.172 0,0 m -14.837,0.854 c 0,-1.281 -0.517,-2.244 -1.659,-2.87 -1.718,-0.934 -3.953,0.268 -4.171,2.036 -0.109,0.804 -0.169,1.609 -0.179,2.413 -0.01,2.979 -0.01,5.959 0,8.938 0.01,0.785 -0.199,1.411 -0.904,1.818 -1.013,0.596 -2.463,0.268 -2.85,-0.934 -0.139,-0.457 -0.199,-0.943 -0.199,-1.41 -0.02,-3.387 -0.02,-6.783 -0.01,-10.169 0,-1.232 -0.526,-2.096 -1.618,-2.682 -1.5,-0.814 -3.377,-0.04 -3.983,1.38 -0.159,0.378 -0.238,0.805 -0.248,1.212 -0.04,1.003 0,2.016 -0.02,3.019 -0.02,0.755 -0.646,1.639 -1.281,1.867 -0.765,0.268 -1.758,0.02 -2.265,-0.665 -0.198,-0.269 -0.367,-0.636 -0.387,-0.963 -0.05,-0.984 0.01,-1.977 -0.03,-2.96 -0.059,-1.281 -0.556,-2.294 -1.758,-2.92 -1.589,-0.824 -3.624,0.149 -4.032,1.718 -0.119,0.447 -0.208,0.924 -0.208,1.391 -0.01,7.051 -0.01,14.102 -0.01,21.144 0,1.281 0.516,2.244 1.658,2.87 1.709,0.933 3.864,-0.229 4.162,-1.927 0.109,-0.596 0.178,-1.211 0.188,-1.818 0.01,-3.237 0.02,-6.474 0,-9.702 -0.01,-0.775 0.259,-1.361 0.914,-1.759 0.953,-0.565 2.413,-0.297 2.831,0.895 0.138,0.407 0.208,0.854 0.208,1.291 0.02,3.446 0.01,6.892 0.01,10.338 0,1.212 0.536,2.086 1.619,2.682 1.499,0.824 3.377,0.039 3.982,-1.381 0.139,-0.338 0.229,-0.725 0.248,-1.102 0.03,-0.944 0,-1.897 0.02,-2.841 0.02,-0.864 0.308,-1.628 1.133,-2.026 1.172,-0.566 2.641,0 2.78,1.341 0.11,1.013 0,2.046 0.06,3.079 0.06,1.073 0.377,2.046 1.331,2.721 1.638,1.162 3.913,0.328 4.439,-1.43 0.139,-0.467 0.209,-0.963 0.219,-1.45 0.01,-3.486 0.01,-6.972 0.01,-10.458 0,-3.565 -0.01,-7.131 0,-10.686 m -33.052,10.597 c -0.874,-0.894 -1.758,-1.808 -2.662,-2.712 -2.969,-2.959 -6.316,-5.442 -9.921,-7.577 -2.235,-1.331 -4.549,-2.523 -7.022,-3.347 -1.638,-0.556 -3.277,-1.142 -4.956,-1.549 -2.314,-0.576 -4.697,-0.785 -7.061,-0.477 -3.823,0.507 -6.694,2.463 -8.392,6.029 -0.635,1.33 -1.072,2.711 -1.39,4.151 -0.318,1.44 -0.467,2.88 -0.467,4.34 0,1.5 -0.079,3.009 0.079,4.489 0.338,3.039 1.113,5.959 2.99,8.471 1.291,1.738 3.009,2.91 5.055,3.566 1.301,0.407 2.662,0.605 4.042,0.516 1.281,-0.079 2.592,-0.05 3.853,-0.298 1.639,-0.318 3.248,-0.824 4.867,-1.301 2.453,-0.715 4.737,-1.837 6.972,-3.049 2.314,-1.251 4.518,-2.691 6.614,-4.28 2.542,-1.927 4.876,-4.072 7.012,-6.436 0.089,-0.099 0.188,-0.189 0.268,-0.298 0.039,-0.039 0.049,-0.099 0.119,-0.238 m 2.413,-11.064 c -1.927,-2.135 -4.072,-4.002 -6.416,-5.661 -2.641,-1.867 -5.492,-3.376 -8.421,-4.717 -1.46,-0.676 -3,-1.192 -4.529,-1.718 -1.45,-0.487 -2.91,-0.934 -4.39,-1.331 -0.874,-0.238 -1.788,-0.378 -2.691,-0.526 -1.43,-0.229 -2.87,-0.537 -4.31,-0.616 -1.52,-0.079 -3.049,0.05 -4.569,0.119 -0.665,0.03 -1.341,0.109 -1.996,0.258 -1.251,0.288 -2.513,0.546 -3.724,0.974 -1.858,0.645 -3.536,1.648 -5.085,2.87 -2.692,2.125 -4.569,4.856 -5.929,7.945 -0.705,1.589 -1.202,3.287 -1.679,4.966 -0.288,1.023 -0.337,2.105 -0.536,3.158 -0.427,2.324 -0.526,4.677 -0.397,7.022 0.099,1.738 0.367,3.465 0.635,5.183 0.189,1.182 0.408,2.374 0.765,3.516 0.656,2.086 1.47,4.112 2.632,5.989 1.023,1.639 2.175,3.158 3.615,4.449 1.649,1.49 3.476,2.662 5.562,3.476 1.926,0.745 3.893,1.291 5.968,1.391 1.48,0.059 2.97,0.218 4.45,0.138 1.479,-0.079 2.959,-0.367 4.429,-0.615 1.232,-0.209 2.483,-0.418 3.685,-0.755 1.787,-0.517 3.585,-1.053 5.313,-1.758 2.314,-0.933 4.588,-1.976 6.813,-3.108 1.609,-0.825 3.148,-1.808 4.628,-2.841 2.215,-1.529 4.211,-3.337 6.038,-5.323 0.308,-0.347 0.586,-0.725 0.864,-1.102 0.08,-0.11 0.139,-0.269 0.139,-0.408 0.01,-2.363 0,-4.727 0,-7.081 0,-0.109 -0.03,-0.218 -0.03,-0.218 -1.996,1.907 -3.952,3.903 -6.058,5.72 -2.771,2.384 -5.78,4.469 -9.037,6.178 -1.649,0.864 -3.308,1.738 -5.016,2.483 -1.35,0.585 -2.781,1.042 -4.211,1.459 -1.45,0.437 -2.909,0.904 -4.409,1.103 -1.808,0.228 -3.655,0.298 -5.482,0.268 -2.98,-0.05 -5.701,-1.013 -8.114,-2.771 -2.235,-1.619 -3.784,-3.774 -4.857,-6.286 -0.655,-1.51 -1.201,-3.059 -1.41,-4.708 -0.159,-1.192 -0.318,-2.383 -0.457,-3.585 -0.079,-0.665 -0.198,-1.341 -0.159,-2.006 0.11,-1.917 0.159,-3.854 0.457,-5.751 0.447,-2.83 1.371,-5.511 2.97,-7.935 1.658,-2.522 3.893,-4.33 6.683,-5.442 0.974,-0.387 2.036,-0.646 3.079,-0.765 1.559,-0.169 3.148,-0.278 4.727,-0.209 1.421,0.07 2.841,0.358 4.241,0.646 1.311,0.268 2.632,0.596 3.903,1.023 1.351,0.447 2.662,1.003 3.973,1.569 2.731,1.172 5.323,2.632 7.806,4.261 3.883,2.552 7.429,5.531 10.587,9.007 0.467,-0.516 0.864,-0.983 0.834,-1.727 -0.05,-1.292 -0.089,-2.603 0.01,-3.893 0.069,-0.954 -0.278,-1.64 -0.894,-2.315 M 14.06,11.189 c 10e-4,10e-4 0.002,0.002 0.003,0.004 l -0.018,0.005 c -0.312,0.208 -0.686,0.33 -1.088,0.33 L 12.951,11.53 H 3.317 v 0.02 C -1.172,11.53 -5.661,11.54 -10.16,11.54 h -0.725 c 0,1.927 0,3.774 0.02,5.631 0,0.12 0.199,0.258 0.338,0.358 0.059,0.049 0.188,0.01 0.278,0.01 4.519,0 9.047,0.01 13.566,0 v 0.02 h 1.977 7.657 c 0.397,0 0.764,0.119 1.082,0.318 0.537,0.347 0.894,0.953 0.894,1.648 0,0.546 -0.219,1.043 -0.576,1.4 -0.358,0.358 -0.854,0.576 -1.4,0.576 H 5.294 c -0.07,0 -0.14,0 -0.199,-0.009 H 5.065 5.064 c -5.045,0.029 -10.09,0.009 -15.134,0.009 h -0.815 c 0,0.517 0.02,0.974 -0.01,1.43 -0.129,2.374 -1.628,4.817 -4.012,5.791 -0.894,0.357 -1.897,0.625 -2.85,0.655 -1.738,0.06 -3.307,-0.526 -4.589,-1.738 -0.307,-0.288 -0.526,-0.308 -0.834,-0.01 -0.923,0.874 -2.016,1.41 -3.277,1.589 -2.543,0.368 -4.38,-0.179 -6.138,-1.817 -0.784,0.467 -1.519,0.983 -2.334,1.36 -1.221,0.557 -2.483,0.785 -3.883,0.497 -1.559,-0.318 -2.87,-0.993 -3.943,-2.135 -0.705,-0.745 -0.705,-0.755 -1.46,0 -2.582,2.552 -5.492,4.667 -8.6,6.535 -2.483,1.489 -5.085,2.741 -7.747,3.833 -1.648,0.676 -3.366,1.202 -5.084,1.708 -1.56,0.457 -3.149,0.854 -4.748,1.162 -1.609,0.308 -3.247,0.537 -4.876,0.705 -1.48,0.139 -2.97,0.249 -4.449,0.169 -1.54,-0.079 -3.089,-0.298 -4.599,-0.645 -1.599,-0.358 -3.197,-0.805 -4.697,-1.46 -1.47,-0.636 -2.851,-1.52 -4.201,-2.404 -1.758,-1.152 -3.238,-2.651 -4.539,-4.3 -1.241,-1.589 -2.344,-3.277 -3.138,-5.135 -0.536,-1.261 -1.093,-2.512 -1.529,-3.813 -0.348,-1.013 -0.567,-2.076 -0.785,-3.138 -0.248,-1.113 -0.437,-2.245 -0.646,-3.367 -0.01,-0.08 -0.019,-0.149 -0.029,-0.229 -0.07,-2.661 -0.209,-5.323 -0.189,-7.994 0,-1.371 0.199,-2.762 0.437,-4.112 0.487,-2.741 1.182,-5.443 2.314,-7.995 1.698,-3.863 4.082,-7.24 7.458,-9.842 1.897,-1.46 3.973,-2.632 6.257,-3.416 1.48,-0.507 2.95,-0.993 4.509,-1.152 0.566,-0.06 1.132,-0.139 1.698,-0.239 0.179,-0.03 0.348,-0.129 0.517,-0.198 h 5.114 c 0.11,0.069 0.219,0.168 0.338,0.188 0.814,0.1 1.649,0.129 2.463,0.268 1.529,0.269 3.059,0.577 4.588,0.894 1.033,0.229 2.076,0.457 3.089,0.775 1.371,0.417 2.741,0.854 4.052,1.41 2.026,0.854 4.022,1.768 5.989,2.751 2.641,1.311 5.134,2.88 7.418,4.747 1.361,1.113 2.642,2.334 3.953,3.506 0.288,0.269 0.417,0.447 0.795,-0.02 1.062,-1.331 2.453,-2.145 4.171,-2.482 2.294,-0.447 4.201,0.258 5.899,1.708 0.338,0.288 0.477,0.089 0.646,-0.07 1.38,-1.261 3.029,-1.857 4.866,-1.787 1.609,0.069 3.099,0.605 4.3,1.747 0.308,0.298 0.527,0.319 0.835,0.02 0.963,-0.913 2.135,-1.35 3.446,-1.629 2.959,-0.645 6.326,1.361 7.349,3.854 0.06,0.149 0.199,0.248 0.238,0.288 1.937,-1.251 3.774,-2.562 5.721,-3.675 1.202,-0.685 2.572,-0.774 4.002,-0.467 1.649,0.348 2.99,1.113 4.052,2.384 1.371,1.629 1.847,3.555 1.49,5.601 C 3.575,3.903 2.384,5.532 0.546,6.664 0.159,6.902 -0.199,7.19 -0.556,7.588 H 3.317 3.318 V 7.581 H 6.06 c 0.555,-0.001 1.111,0 1.667,-0.003 h 0.029 c 0.023,0 0.043,0.003 0.066,0.003 h 5.131 c 1.09,0 1.974,0.884 1.974,1.974 0,0.679 -0.344,1.279 -0.867,1.634"
             style=""
             id="path30" /></g><g
           id="g32"
           transform="translate(118.0327,30.1673)"><path
             d="m 0,0 c -0.548,0 -1.068,-0.174 -1.452,-0.471 -0.229,-0.122 -0.475,-0.265 -0.739,-0.434 -2.095,-1.332 -4.41,-1.24 -6.515,0.259 -0.792,0.564 -1.594,1.037 -2.459,1.442 l -0.393,0.174 c -0.889,0.374 -1.793,0.629 -2.684,0.758 -0.1,0.015 -0.201,0.029 -0.31,0.042 l -0.305,0.029 c -1.626,0.13 -3.27,-0.151 -4.895,-0.847 -0.91,-0.387 -1.836,-0.915 -2.753,-1.569 -1.514,-1.08 -3.068,-1.447 -4.624,-1.089 -0.758,0.173 -1.516,0.523 -2.256,1.042 -4.74,3.337 -9.151,3.336 -13.886,-0.007 -1.803,-1.276 -3.74,-1.522 -5.605,-0.703 -0.067,0.028 -0.134,0.059 -0.218,0.101 -0.065,0.029 -0.127,0.06 -0.195,0.098 -0.292,0.153 -0.582,0.333 -0.863,0.534 -0.385,0.275 -0.769,0.526 -1.15,0.753 l -0.208,0.122 c -0.074,0.044 -0.15,0.086 -0.221,0.125 -1.143,0.63 -2.3,1.063 -3.441,1.287 -1.882,0.367 -3.787,0.182 -5.67,-0.555 -1.027,-0.403 -2.072,-0.979 -3.106,-1.714 -0.441,-0.314 -0.893,-0.572 -1.352,-0.771 -0.06,-0.027 -0.121,-0.05 -0.219,-0.088 -0.073,-0.029 -0.149,-0.055 -0.223,-0.08 -0.999,-0.341 -2.009,-0.373 -3.012,-0.1 -0.148,0.038 -0.295,0.085 -0.452,0.145 -0.173,0.06 -0.347,0.134 -0.572,0.243 -0.377,0.175 -0.749,0.396 -1.139,0.674 -2.313,1.649 -4.695,2.453 -7.018,2.432 -2.245,-0.032 -4.495,-0.844 -6.689,-2.414 -1.152,-0.827 -2.325,-1.252 -3.484,-1.263 h -0.044 c -1.173,0 -2.363,0.426 -3.537,1.266 -0.39,0.28 -0.78,0.534 -1.155,0.752 -0.252,0.15 -0.501,0.288 -0.742,0.403 -0.215,0.115 -0.431,0.216 -0.65,0.313 -0.711,0.311 -1.438,0.549 -2.159,0.704 -0.7,0.153 -1.406,0.231 -2.098,0.231 -0.155,10e-4 -0.31,0 -0.464,-0.008 -0.112,-0.006 -0.223,-0.011 -0.318,-0.022 -2.041,-0.15 -4.068,-0.937 -6.027,-2.343 -2.352,-1.687 -4.49,-1.74 -6.92,-0.18 l -0.001,0.165 h -0.232 C -112.896,-0.2 -113.45,0 -114.03,0 c -0.408,0 -0.811,-0.1 -1.091,-0.26 l -0.094,-0.041 c -0.802,-0.437 -1.3,-1.275 -1.3,-2.186 0,-1.267 0.949,-2.329 2.204,-2.47 0.091,-0.012 0.186,-0.017 0.281,-0.017 0.044,0 0.088,0 0.071,0.004 0.4,-0.04 0.827,-0.207 1.267,-0.494 1.321,-0.862 2.586,-1.294 3.839,-1.294 1.326,0.001 2.636,0.483 3.983,1.449 1.844,1.324 3.744,2.068 5.663,2.208 0.084,0.01 0.167,0.014 0.284,0.019 0.102,0.004 0.203,0.006 0.309,0.006 0.686,0.016 1.373,-0.061 2.062,-0.211 0.674,-0.146 1.353,-0.368 2.016,-0.659 0.203,-0.09 0.404,-0.184 0.614,-0.294 0.234,-0.115 0.467,-0.241 0.703,-0.383 0.356,-0.207 0.715,-0.441 1.101,-0.716 1.319,-0.943 2.642,-1.426 4.017,-1.404 1.315,0.012 2.63,0.484 3.908,1.402 2.071,1.481 4.179,2.246 6.268,2.275 2.167,0.045 4.396,-0.739 6.578,-2.295 0.428,-0.304 0.839,-0.546 1.215,-0.72 l 0.089,-0.046 c 0.197,-0.094 0.395,-0.178 0.587,-0.245 0.171,-0.064 0.343,-0.119 0.513,-0.164 1.14,-0.309 2.297,-0.271 3.439,0.115 0.09,0.03 0.179,0.061 0.254,0.092 0.087,0.033 0.175,0.067 0.249,0.102 0.503,0.217 1.002,0.501 1.483,0.843 0.984,0.701 1.976,1.248 2.946,1.628 1.751,0.685 3.519,0.862 5.257,0.518 1.067,-0.21 2.152,-0.616 3.228,-1.211 0.065,-0.035 0.133,-0.071 0.206,-0.116 l 0.199,-0.115 c 0.365,-0.218 0.732,-0.459 1.099,-0.721 0.305,-0.218 0.624,-0.416 0.944,-0.583 0.081,-0.045 0.162,-0.087 0.231,-0.117 0.08,-0.04 0.161,-0.077 0.241,-0.112 2.108,-0.922 4.295,-0.654 6.324,0.78 4.441,3.139 8.582,3.14 13.032,0.007 0.817,-0.574 1.663,-0.964 2.517,-1.159 1.746,-0.402 3.551,0.016 5.219,1.208 0.871,0.622 1.751,1.124 2.614,1.492 1.514,0.647 3.042,0.917 4.542,0.787 l 0.568,-0.063 c 0.831,-0.121 1.675,-0.359 2.537,-0.722 l 0.41,-0.183 c 0.754,-0.353 1.516,-0.804 2.268,-1.341 2.334,-1.661 5.01,-1.764 7.342,-0.28 0.64,0.406 1.122,0.64 1.509,0.731 0.243,-0.034 0.499,-0.021 0.722,0.023 1.186,0.208 2.048,1.237 2.048,2.446 0,0.386 -0.092,0.771 -0.265,1.115 C 1.795,-0.525 0.944,0 0,0"
             style=""
             id="path34" /></g><g
           id="g36"
           transform="translate(117.9978,42.7696)"><path
             d="m 0,0 c -0.548,0 -1.068,-0.174 -1.452,-0.471 -0.229,-0.122 -0.475,-0.265 -0.739,-0.434 -2.095,-1.332 -4.41,-1.24 -6.515,0.259 -0.792,0.564 -1.594,1.037 -2.459,1.442 l -0.393,0.174 c -0.889,0.374 -1.793,0.629 -2.684,0.758 -0.1,0.015 -0.201,0.029 -0.31,0.042 l -0.305,0.029 c -1.626,0.13 -3.27,-0.151 -4.895,-0.847 -0.91,-0.387 -1.836,-0.915 -2.753,-1.569 -1.514,-1.08 -3.068,-1.447 -4.624,-1.089 -0.758,0.173 -1.516,0.523 -2.256,1.042 -4.74,3.337 -9.151,3.336 -13.886,-0.007 -1.803,-1.276 -3.74,-1.522 -5.605,-0.703 -0.067,0.028 -0.134,0.059 -0.218,0.101 -0.065,0.029 -0.127,0.06 -0.195,0.098 -0.292,0.153 -0.582,0.333 -0.863,0.534 -0.385,0.275 -0.769,0.526 -1.15,0.753 l -0.208,0.122 c -0.074,0.044 -0.15,0.086 -0.221,0.125 -1.143,0.63 -2.3,1.063 -3.441,1.287 -1.882,0.367 -3.787,0.182 -5.67,-0.555 -1.027,-0.403 -2.072,-0.979 -3.106,-1.714 -0.441,-0.314 -0.893,-0.572 -1.352,-0.771 -0.06,-0.027 -0.121,-0.05 -0.219,-0.088 -0.073,-0.029 -0.149,-0.055 -0.223,-0.08 -0.999,-0.341 -2.009,-0.373 -3.012,-0.1 -0.148,0.038 -0.295,0.085 -0.452,0.145 -0.173,0.06 -0.347,0.134 -0.572,0.243 -0.377,0.175 -0.749,0.396 -1.139,0.674 -2.313,1.649 -4.695,2.453 -7.018,2.432 -2.245,-0.032 -4.495,-0.844 -6.689,-2.414 -1.152,-0.827 -2.325,-1.252 -3.484,-1.263 h -0.044 c -1.173,0 -2.363,0.426 -3.537,1.266 -0.39,0.28 -0.78,0.534 -1.155,0.752 -0.252,0.15 -0.501,0.288 -0.742,0.403 -0.215,0.115 -0.431,0.216 -0.65,0.313 -0.711,0.311 -1.438,0.549 -2.159,0.704 -0.7,0.153 -1.406,0.231 -2.098,0.231 -0.155,10e-4 -0.31,0 -0.464,-0.008 -0.112,-0.006 -0.223,-0.011 -0.318,-0.022 -2.041,-0.15 -4.068,-0.937 -6.027,-2.343 -2.352,-1.687 -4.49,-1.74 -6.92,-0.18 l -0.001,0.165 h -0.232 C -112.896,-0.2 -113.45,0 -114.03,0 c -0.408,0 -0.811,-0.1 -1.091,-0.26 l -0.094,-0.041 c -0.802,-0.437 -1.3,-1.275 -1.3,-2.186 0,-1.267 0.949,-2.329 2.204,-2.47 0.091,-0.012 0.186,-0.017 0.281,-0.017 0.044,0 0.088,0 0.071,0.004 0.4,-0.04 0.827,-0.207 1.267,-0.494 1.321,-0.862 2.586,-1.294 3.839,-1.294 1.326,0.001 2.636,0.483 3.983,1.449 1.844,1.324 3.744,2.068 5.663,2.208 0.084,0.01 0.167,0.014 0.284,0.019 0.102,0.004 0.203,0.006 0.309,0.006 0.686,0.016 1.373,-0.061 2.062,-0.211 0.674,-0.146 1.353,-0.368 2.016,-0.659 0.203,-0.09 0.404,-0.184 0.614,-0.294 0.234,-0.115 0.467,-0.241 0.703,-0.383 0.356,-0.207 0.715,-0.441 1.101,-0.716 1.319,-0.943 2.642,-1.426 4.017,-1.404 1.315,0.012 2.63,0.484 3.908,1.402 2.071,1.481 4.179,2.246 6.268,2.275 2.167,0.045 4.396,-0.739 6.578,-2.295 0.428,-0.304 0.839,-0.546 1.215,-0.72 l 0.089,-0.046 c 0.197,-0.094 0.395,-0.178 0.586,-0.245 0.172,-0.064 0.344,-0.119 0.514,-0.164 1.14,-0.309 2.297,-0.271 3.439,0.115 0.09,0.03 0.179,0.061 0.254,0.092 0.087,0.033 0.175,0.067 0.249,0.102 0.503,0.217 1.002,0.501 1.483,0.843 0.984,0.701 1.976,1.248 2.946,1.628 1.751,0.685 3.519,0.862 5.257,0.518 1.067,-0.21 2.152,-0.616 3.228,-1.211 0.064,-0.035 0.133,-0.071 0.206,-0.116 l 0.199,-0.115 c 0.365,-0.218 0.732,-0.459 1.099,-0.721 0.305,-0.218 0.624,-0.416 0.944,-0.583 0.081,-0.045 0.162,-0.087 0.231,-0.117 0.08,-0.04 0.161,-0.077 0.241,-0.112 2.108,-0.922 4.295,-0.654 6.324,0.78 4.441,3.139 8.582,3.14 13.032,0.007 0.817,-0.574 1.663,-0.964 2.517,-1.159 1.746,-0.402 3.551,0.016 5.219,1.208 0.871,0.622 1.751,1.124 2.614,1.492 1.514,0.647 3.042,0.917 4.542,0.787 l 0.568,-0.063 c 0.831,-0.121 1.675,-0.359 2.537,-0.722 l 0.41,-0.183 c 0.754,-0.353 1.516,-0.804 2.268,-1.341 2.334,-1.661 5.01,-1.764 7.342,-0.28 0.64,0.406 1.122,0.64 1.509,0.731 0.243,-0.034 0.499,-0.021 0.722,0.023 1.186,0.208 2.048,1.237 2.048,2.446 0,0.386 -0.092,0.771 -0.265,1.115 C 1.795,-0.525 0.944,0 0,0"
             style=""
             id="path38" /></g>
           </g></g></g></svg>
